solid CATIA STL
  facet normal -9.659259e-001  0.000000e+000 -2.588189e-001
    outer loop
      vertex  1.650000e+001  1.000000e+001 -1.436974e-016
      vertex  1.589711e+001  0.000000e+000  2.250000e+000
      vertex  1.589711e+001  1.000000e+001  2.250000e+000
    endloop
  endfacet
  facet normal -7.071066e-001  -0.000000e+000 -7.071069e-001
    outer loop
      vertex  1.589711e+001  1.000000e+001  2.250000e+000
      vertex  1.589711e+001  0.000000e+000  2.250000e+000
      vertex  1.425000e+001  0.000000e+000  3.897114e+000
    endloop
  endfacet
  facet normal -7.071066e-001  0.000000e+000 -7.071069e-001
    outer loop
      vertex  1.589711e+001  1.000000e+001  2.250000e+000
      vertex  1.425000e+001  0.000000e+000  3.897114e+000
      vertex  1.425000e+001  1.000000e+001  3.897114e+000
    endloop
  endfacet
  facet normal -2.588191e-001  -0.000000e+000 -9.659258e-001
    outer loop
      vertex  1.425000e+001  1.000000e+001  3.897114e+000
      vertex  1.425000e+001  0.000000e+000  3.897114e+000
      vertex  1.200000e+001  0.000000e+000  4.500000e+000
    endloop
  endfacet
  facet normal -2.588191e-001  0.000000e+000 -9.659258e-001
    outer loop
      vertex  1.425000e+001  1.000000e+001  3.897114e+000
      vertex  1.200000e+001  0.000000e+000  4.500000e+000
      vertex  1.200000e+001  1.000000e+001  4.500000e+000
    endloop
  endfacet
  facet normal -9.659259e-001  -0.000000e+000 -2.588189e-001
    outer loop
      vertex  1.589711e+001  0.000000e+000  2.250000e+000
      vertex  1.650000e+001  1.000000e+001 -1.436974e-016
      vertex  1.650000e+001  0.000000e+000 -1.436974e-016
    endloop
  endfacet
  facet normal -9.659259e-001  0.000000e+000  2.588189e-001
    outer loop
      vertex  1.650000e+001  0.000000e+000 -1.436974e-016
      vertex  1.650000e+001  1.000000e+001 -1.436974e-016
      vertex  1.589711e+001  1.000000e+001 -2.250000e+000
    endloop
  endfacet
  facet normal -9.659259e-001  0.000000e+000  2.588189e-001
    outer loop
      vertex  1.650000e+001  0.000000e+000 -1.436974e-016
      vertex  1.589711e+001  1.000000e+001 -2.250000e+000
      vertex  1.589711e+001  0.000000e+000 -2.250000e+000
    endloop
  endfacet
  facet normal -7.071066e-001  0.000000e+000  7.071069e-001
    outer loop
      vertex  1.589711e+001  0.000000e+000 -2.250000e+000
      vertex  1.589711e+001  1.000000e+001 -2.250000e+000
      vertex  1.425000e+001  1.000000e+001 -3.897114e+000
    endloop
  endfacet
  facet normal -7.071066e-001  0.000000e+000  7.071069e-001
    outer loop
      vertex  1.589711e+001  0.000000e+000 -2.250000e+000
      vertex  1.425000e+001  1.000000e+001 -3.897114e+000
      vertex  1.425000e+001  0.000000e+000 -3.897114e+000
    endloop
  endfacet
  facet normal -2.588191e-001  0.000000e+000  9.659258e-001
    outer loop
      vertex  1.425000e+001  0.000000e+000 -3.897114e+000
      vertex  1.425000e+001  1.000000e+001 -3.897114e+000
      vertex  1.200000e+001  1.000000e+001 -4.500000e+000
    endloop
  endfacet
  facet normal -2.588191e-001  0.000000e+000  9.659258e-001
    outer loop
      vertex  1.425000e+001  0.000000e+000 -3.897114e+000
      vertex  1.200000e+001  1.000000e+001 -4.500000e+000
      vertex  1.200000e+001  0.000000e+000 -4.500000e+000
    endloop
  endfacet
  facet normal -9.659259e-001  0.000000e+000 -2.588189e-001
    outer loop
      vertex -7.500000e+000  1.000000e+001 -1.142898e-015
      vertex -8.102885e+000  0.000000e+000  2.250000e+000
      vertex -8.102885e+000  1.000000e+001  2.250000e+000
    endloop
  endfacet
  facet normal -7.071066e-001  -0.000000e+000 -7.071069e-001
    outer loop
      vertex -8.102885e+000  1.000000e+001  2.250000e+000
      vertex -8.102885e+000  0.000000e+000  2.250000e+000
      vertex -9.750000e+000  0.000000e+000  3.897114e+000
    endloop
  endfacet
  facet normal -7.071066e-001  0.000000e+000 -7.071069e-001
    outer loop
      vertex -8.102885e+000  1.000000e+001  2.250000e+000
      vertex -9.750000e+000  0.000000e+000  3.897114e+000
      vertex -9.750000e+000  1.000000e+001  3.897114e+000
    endloop
  endfacet
  facet normal -2.588191e-001  -0.000000e+000 -9.659258e-001
    outer loop
      vertex -9.750000e+000  1.000000e+001  3.897114e+000
      vertex -9.750000e+000  0.000000e+000  3.897114e+000
      vertex -1.200000e+001  0.000000e+000  4.500000e+000
    endloop
  endfacet
  facet normal -2.588191e-001  0.000000e+000 -9.659258e-001
    outer loop
      vertex -9.750000e+000  1.000000e+001  3.897114e+000
      vertex -1.200000e+001  0.000000e+000  4.500000e+000
      vertex -1.200000e+001  1.000000e+001  4.500000e+000
    endloop
  endfacet
  facet normal -9.659259e-001  -0.000000e+000 -2.588189e-001
    outer loop
      vertex -8.102885e+000  0.000000e+000  2.250000e+000
      vertex -7.500000e+000  1.000000e+001 -1.142898e-015
      vertex -7.500000e+000  0.000000e+000 -1.142898e-015
    endloop
  endfacet
  facet normal -9.659259e-001  0.000000e+000  2.588189e-001
    outer loop
      vertex -7.500000e+000  0.000000e+000 -1.142898e-015
      vertex -7.500000e+000  1.000000e+001 -1.142898e-015
      vertex -8.102885e+000  1.000000e+001 -2.250000e+000
    endloop
  endfacet
  facet normal -9.659259e-001  0.000000e+000  2.588189e-001
    outer loop
      vertex -7.500000e+000  0.000000e+000 -1.142898e-015
      vertex -8.102885e+000  1.000000e+001 -2.250000e+000
      vertex -8.102885e+000  0.000000e+000 -2.250000e+000
    endloop
  endfacet
  facet normal -7.071066e-001  0.000000e+000  7.071069e-001
    outer loop
      vertex -8.102885e+000  0.000000e+000 -2.250000e+000
      vertex -8.102885e+000  1.000000e+001 -2.250000e+000
      vertex -9.750000e+000  1.000000e+001 -3.897114e+000
    endloop
  endfacet
  facet normal -7.071066e-001  0.000000e+000  7.071069e-001
    outer loop
      vertex -8.102885e+000  0.000000e+000 -2.250000e+000
      vertex -9.750000e+000  1.000000e+001 -3.897114e+000
      vertex -9.750000e+000  0.000000e+000 -3.897114e+000
    endloop
  endfacet
  facet normal -2.588191e-001  0.000000e+000  9.659258e-001
    outer loop
      vertex -9.750000e+000  0.000000e+000 -3.897114e+000
      vertex -9.750000e+000  1.000000e+001 -3.897114e+000
      vertex -1.200000e+001  1.000000e+001 -4.500000e+000
    endloop
  endfacet
  facet normal -2.588191e-001  0.000000e+000  9.659258e-001
    outer loop
      vertex -9.750000e+000  0.000000e+000 -3.897114e+000
      vertex -1.200000e+001  1.000000e+001 -4.500000e+000
      vertex -1.200000e+001  0.000000e+000 -4.500000e+000
    endloop
  endfacet
  facet normal  1.000000e+000  0.000000e+000  0.000000e+000
    outer loop
      vertex  2.000000e+001  0.000000e+000 -2.500000e+000
      vertex  2.000000e+001  1.000000e+001 -2.500000e+000
      vertex  2.000000e+001  0.000000e+000  2.500000e+000
    endloop
  endfacet
  facet normal  1.000000e+000  -0.000000e+000  0.000000e+000
    outer loop
      vertex  2.000000e+001  0.000000e+000  2.500000e+000
      vertex  2.000000e+001  1.000000e+001 -2.500000e+000
      vertex  2.000000e+001  1.000000e+001  2.500000e+000
    endloop
  endfacet
  facet normal  2.588190e-001  -0.000000e+000  9.659259e-001
    outer loop
      vertex  1.500000e+001  1.000000e+001  7.500000e+000
      vertex  1.500000e+001  0.000000e+000  7.500000e+000
      vertex  1.750000e+001  1.000000e+001  6.830127e+000
    endloop
  endfacet
  facet normal  2.588190e-001  0.000000e+000  9.659259e-001
    outer loop
      vertex  1.750000e+001  1.000000e+001  6.830127e+000
      vertex  1.500000e+001  0.000000e+000  7.500000e+000
      vertex  1.750000e+001  0.000000e+000  6.830127e+000
    endloop
  endfacet
  facet normal  7.071066e-001  -0.000000e+000  7.071068e-001
    outer loop
      vertex  1.750000e+001  1.000000e+001  6.830127e+000
      vertex  1.750000e+001  0.000000e+000  6.830127e+000
      vertex  1.933013e+001  1.000000e+001  5.000000e+000
    endloop
  endfacet
  facet normal  7.071066e-001  0.000000e+000  7.071068e-001
    outer loop
      vertex  1.933013e+001  1.000000e+001  5.000000e+000
      vertex  1.750000e+001  0.000000e+000  6.830127e+000
      vertex  1.933013e+001  0.000000e+000  5.000000e+000
    endloop
  endfacet
  facet normal  9.659259e-001  -0.000000e+000  2.588188e-001
    outer loop
      vertex  1.933013e+001  1.000000e+001  5.000000e+000
      vertex  1.933013e+001  0.000000e+000  5.000000e+000
      vertex  2.000000e+001  1.000000e+001  2.500000e+000
    endloop
  endfacet
  facet normal  9.659259e-001  0.000000e+000  2.588188e-001
    outer loop
      vertex  2.000000e+001  1.000000e+001  2.500000e+000
      vertex  1.933013e+001  0.000000e+000  5.000000e+000
      vertex  2.000000e+001  0.000000e+000  2.500000e+000
    endloop
  endfacet
  facet normal  0.000000e+000  0.000000e+000  1.000000e+000
    outer loop
      vertex  1.500000e+001  0.000000e+000  7.500000e+000
      vertex  1.500000e+001  1.000000e+001  7.500000e+000
      vertex -1.500000e+001  0.000000e+000  7.500000e+000
    endloop
  endfacet
  facet normal  0.000000e+000  0.000000e+000  1.000000e+000
    outer loop
      vertex -1.500000e+001  0.000000e+000  7.500000e+000
      vertex  1.500000e+001  1.000000e+001  7.500000e+000
      vertex -1.500000e+001  1.000000e+001  7.500000e+000
    endloop
  endfacet
  facet normal -9.659259e-001  0.000000e+000  2.588188e-001
    outer loop
      vertex -2.000000e+001  1.000000e+001  2.500000e+000
      vertex -2.000000e+001  0.000000e+000  2.500000e+000
      vertex -1.933013e+001  1.000000e+001  5.000000e+000
    endloop
  endfacet
  facet normal -9.659259e-001  0.000000e+000  2.588188e-001
    outer loop
      vertex -1.933013e+001  1.000000e+001  5.000000e+000
      vertex -2.000000e+001  0.000000e+000  2.500000e+000
      vertex -1.933013e+001  0.000000e+000  5.000000e+000
    endloop
  endfacet
  facet normal -7.071066e-001  0.000000e+000  7.071068e-001
    outer loop
      vertex -1.933013e+001  1.000000e+001  5.000000e+000
      vertex -1.933013e+001  0.000000e+000  5.000000e+000
      vertex -1.750000e+001  1.000000e+001  6.830127e+000
    endloop
  endfacet
  facet normal -7.071066e-001  0.000000e+000  7.071068e-001
    outer loop
      vertex -1.750000e+001  1.000000e+001  6.830127e+000
      vertex -1.933013e+001  0.000000e+000  5.000000e+000
      vertex -1.750000e+001  0.000000e+000  6.830127e+000
    endloop
  endfacet
  facet normal -2.588190e-001  0.000000e+000  9.659259e-001
    outer loop
      vertex -1.750000e+001  1.000000e+001  6.830127e+000
      vertex -1.750000e+001  0.000000e+000  6.830127e+000
      vertex -1.500000e+001  1.000000e+001  7.500000e+000
    endloop
  endfacet
  facet normal -2.588190e-001  0.000000e+000  9.659259e-001
    outer loop
      vertex -1.500000e+001  1.000000e+001  7.500000e+000
      vertex -1.750000e+001  0.000000e+000  6.830127e+000
      vertex -1.500000e+001  0.000000e+000  7.500000e+000
    endloop
  endfacet
  facet normal -1.000000e+000  -0.000000e+000  0.000000e+000
    outer loop
      vertex -2.000000e+001  0.000000e+000  2.500000e+000
      vertex -2.000000e+001  1.000000e+001  2.500000e+000
      vertex -2.000000e+001  0.000000e+000 -2.500000e+000
    endloop
  endfacet
  facet normal -1.000000e+000  0.000000e+000  0.000000e+000
    outer loop
      vertex -2.000000e+001  0.000000e+000 -2.500000e+000
      vertex -2.000000e+001  1.000000e+001  2.500000e+000
      vertex -2.000000e+001  1.000000e+001 -2.500000e+000
    endloop
  endfacet
  facet normal -2.588190e-001  0.000000e+000 -9.659259e-001
    outer loop
      vertex -1.500000e+001  1.000000e+001 -7.500000e+000
      vertex -1.500000e+001  0.000000e+000 -7.500000e+000
      vertex -1.750000e+001  1.000000e+001 -6.830127e+000
    endloop
  endfacet
  facet normal -2.588190e-001  -0.000000e+000 -9.659259e-001
    outer loop
      vertex -1.750000e+001  1.000000e+001 -6.830127e+000
      vertex -1.500000e+001  0.000000e+000 -7.500000e+000
      vertex -1.750000e+001  0.000000e+000 -6.830127e+000
    endloop
  endfacet
  facet normal -7.071066e-001  0.000000e+000 -7.071068e-001
    outer loop
      vertex -1.750000e+001  1.000000e+001 -6.830127e+000
      vertex -1.750000e+001  0.000000e+000 -6.830127e+000
      vertex -1.933013e+001  1.000000e+001 -5.000000e+000
    endloop
  endfacet
  facet normal -7.071066e-001  -0.000000e+000 -7.071068e-001
    outer loop
      vertex -1.933013e+001  1.000000e+001 -5.000000e+000
      vertex -1.750000e+001  0.000000e+000 -6.830127e+000
      vertex -1.933013e+001  0.000000e+000 -5.000000e+000
    endloop
  endfacet
  facet normal -9.659259e-001  0.000000e+000 -2.588188e-001
    outer loop
      vertex -1.933013e+001  1.000000e+001 -5.000000e+000
      vertex -1.933013e+001  0.000000e+000 -5.000000e+000
      vertex -2.000000e+001  1.000000e+001 -2.500000e+000
    endloop
  endfacet
  facet normal -9.659259e-001  -0.000000e+000 -2.588188e-001
    outer loop
      vertex -2.000000e+001  1.000000e+001 -2.500000e+000
      vertex -1.933013e+001  0.000000e+000 -5.000000e+000
      vertex -2.000000e+001  0.000000e+000 -2.500000e+000
    endloop
  endfacet
  facet normal  0.000000e+000  0.000000e+000 -1.000000e+000
    outer loop
      vertex -1.500000e+001  0.000000e+000 -7.500000e+000
      vertex -1.500000e+001  1.000000e+001 -7.500000e+000
      vertex  1.500000e+001  0.000000e+000 -7.500000e+000
    endloop
  endfacet
  facet normal  0.000000e+000  0.000000e+000 -1.000000e+000
    outer loop
      vertex  1.500000e+001  0.000000e+000 -7.500000e+000
      vertex -1.500000e+001  1.000000e+001 -7.500000e+000
      vertex  1.500000e+001  1.000000e+001 -7.500000e+000
    endloop
  endfacet
  facet normal  9.659259e-001  0.000000e+000 -2.588188e-001
    outer loop
      vertex  2.000000e+001  1.000000e+001 -2.500000e+000
      vertex  2.000000e+001  0.000000e+000 -2.500000e+000
      vertex  1.933013e+001  1.000000e+001 -5.000000e+000
    endloop
  endfacet
  facet normal  9.659259e-001  0.000000e+000 -2.588188e-001
    outer loop
      vertex  1.933013e+001  1.000000e+001 -5.000000e+000
      vertex  2.000000e+001  0.000000e+000 -2.500000e+000
      vertex  1.933013e+001  0.000000e+000 -5.000000e+000
    endloop
  endfacet
  facet normal  7.071066e-001  0.000000e+000 -7.071068e-001
    outer loop
      vertex  1.933013e+001  1.000000e+001 -5.000000e+000
      vertex  1.933013e+001  0.000000e+000 -5.000000e+000
      vertex  1.750000e+001  1.000000e+001 -6.830127e+000
    endloop
  endfacet
  facet normal  7.071066e-001  0.000000e+000 -7.071068e-001
    outer loop
      vertex  1.750000e+001  1.000000e+001 -6.830127e+000
      vertex  1.933013e+001  0.000000e+000 -5.000000e+000
      vertex  1.750000e+001  0.000000e+000 -6.830127e+000
    endloop
  endfacet
  facet normal  2.588190e-001  0.000000e+000 -9.659259e-001
    outer loop
      vertex  1.750000e+001  1.000000e+001 -6.830127e+000
      vertex  1.750000e+001  0.000000e+000 -6.830127e+000
      vertex  1.500000e+001  1.000000e+001 -7.500000e+000
    endloop
  endfacet
  facet normal  2.588190e-001  0.000000e+000 -9.659259e-001
    outer loop
      vertex  1.500000e+001  1.000000e+001 -7.500000e+000
      vertex  1.750000e+001  0.000000e+000 -6.830127e+000
      vertex  1.500000e+001  0.000000e+000 -7.500000e+000
    endloop
  endfacet
  facet normal  -0.000000e+000 -1.000000e+000  0.000000e+000
    outer loop
      vertex  1.650000e+001  0.000000e+000 -1.436974e-016
      vertex  1.933013e+001  0.000000e+000  5.000000e+000
      vertex  1.750000e+001  0.000000e+000  6.830127e+000
    endloop
  endfacet
  facet normal  0.000000e+000 -1.000000e+000  0.000000e+000
    outer loop
      vertex -9.750000e+000  0.000000e+000  3.897114e+000
      vertex -8.102885e+000  0.000000e+000  2.250000e+000
      vertex  7.500000e+000  0.000000e+000 -4.075245e-017
    endloop
  endfacet
  facet normal  0.000000e+000 -1.000000e+000  0.000000e+000
    outer loop
      vertex -8.102885e+000  0.000000e+000  2.250000e+000
      vertex -7.500000e+000  0.000000e+000 -1.142898e-015
      vertex  7.500000e+000  0.000000e+000 -4.075245e-017
    endloop
  endfacet
  facet normal  0.000000e+000 -1.000000e+000  0.000000e+000
    outer loop
      vertex -1.750000e+001  0.000000e+000  6.830127e+000
      vertex -1.650000e+001  0.000000e+000 -4.075245e-017
      vertex -1.589711e+001  0.000000e+000  2.250000e+000
    endloop
  endfacet
  facet normal  0.000000e+000 -1.000000e+000  0.000000e+000
    outer loop
      vertex -9.750000e+000  0.000000e+000 -3.897114e+000
      vertex  7.500000e+000  0.000000e+000 -4.075245e-017
      vertex -8.102885e+000  0.000000e+000 -2.250000e+000
    endloop
  endfacet
  facet normal  0.000000e+000 -1.000000e+000  0.000000e+000
    outer loop
      vertex -8.102885e+000  0.000000e+000 -2.250000e+000
      vertex  7.500000e+000  0.000000e+000 -4.075245e-017
      vertex -7.500000e+000  0.000000e+000 -1.142898e-015
    endloop
  endfacet
  facet normal  -0.000000e+000 -1.000000e+000  0.000000e+000
    outer loop
      vertex -1.750000e+001  0.000000e+000 -6.830127e+000
      vertex -1.589711e+001  0.000000e+000 -2.250000e+000
      vertex -1.650000e+001  0.000000e+000 -4.075245e-017
    endloop
  endfacet
  facet normal  -0.000000e+000 -1.000000e+000  0.000000e+000
    outer loop
      vertex  1.500000e+001  0.000000e+000 -7.500000e+000
      vertex  1.750000e+001  0.000000e+000 -6.830127e+000
      vertex  1.650000e+001  0.000000e+000 -1.436974e-016
    endloop
  endfacet
  facet normal  0.000000e+000 -1.000000e+000  0.000000e+000
    outer loop
      vertex  1.500000e+001  0.000000e+000 -7.500000e+000
      vertex  1.650000e+001  0.000000e+000 -1.436974e-016
      vertex  1.589711e+001  0.000000e+000 -2.250000e+000
    endloop
  endfacet
  facet normal  0.000000e+000 -1.000000e+000  0.000000e+000
    outer loop
      vertex  1.500000e+001  0.000000e+000 -7.500000e+000
      vertex  1.589711e+001  0.000000e+000 -2.250000e+000
      vertex  1.425000e+001  0.000000e+000 -3.897114e+000
    endloop
  endfacet
  facet normal  0.000000e+000 -1.000000e+000  -0.000000e+000
    outer loop
      vertex  1.500000e+001  0.000000e+000 -7.500000e+000
      vertex  1.425000e+001  0.000000e+000 -3.897114e+000
      vertex  1.200000e+001  0.000000e+000 -4.500000e+000
    endloop
  endfacet
  facet normal  0.000000e+000 -1.000000e+000  -0.000000e+000
    outer loop
      vertex  1.500000e+001  0.000000e+000 -7.500000e+000
      vertex  1.200000e+001  0.000000e+000 -4.500000e+000
      vertex -1.500000e+001  0.000000e+000 -7.500000e+000
    endloop
  endfacet
  facet normal  -0.000000e+000 -1.000000e+000  0.000000e+000
    outer loop
      vertex -1.500000e+001  0.000000e+000 -7.500000e+000
      vertex  1.200000e+001  0.000000e+000 -4.500000e+000
      vertex  9.750000e+000  0.000000e+000 -3.897114e+000
    endloop
  endfacet
  facet normal  -0.000000e+000 -1.000000e+000  0.000000e+000
    outer loop
      vertex -1.500000e+001  0.000000e+000 -7.500000e+000
      vertex  9.750000e+000  0.000000e+000 -3.897114e+000
      vertex  8.102885e+000  0.000000e+000 -2.250000e+000
    endloop
  endfacet
  facet normal  -0.000000e+000 -1.000000e+000  0.000000e+000
    outer loop
      vertex -1.500000e+001  0.000000e+000 -7.500000e+000
      vertex  8.102885e+000  0.000000e+000 -2.250000e+000
      vertex  7.500000e+000  0.000000e+000 -4.075245e-017
    endloop
  endfacet
  facet normal  0.000000e+000 -1.000000e+000  0.000000e+000
    outer loop
      vertex -1.500000e+001  0.000000e+000 -7.500000e+000
      vertex  7.500000e+000  0.000000e+000 -4.075245e-017
      vertex -9.750000e+000  0.000000e+000 -3.897114e+000
    endloop
  endfacet
  facet normal  0.000000e+000 -1.000000e+000  0.000000e+000
    outer loop
      vertex -1.500000e+001  0.000000e+000 -7.500000e+000
      vertex -9.750000e+000  0.000000e+000 -3.897114e+000
      vertex -1.200000e+001  0.000000e+000 -4.500000e+000
    endloop
  endfacet
  facet normal  -0.000000e+000 -1.000000e+000  0.000000e+000
    outer loop
      vertex -1.500000e+001  0.000000e+000 -7.500000e+000
      vertex -1.200000e+001  0.000000e+000 -4.500000e+000
      vertex -1.425000e+001  0.000000e+000 -3.897114e+000
    endloop
  endfacet
  facet normal  -0.000000e+000 -1.000000e+000  0.000000e+000
    outer loop
      vertex -1.500000e+001  0.000000e+000 -7.500000e+000
      vertex -1.425000e+001  0.000000e+000 -3.897114e+000
      vertex -1.589711e+001  0.000000e+000 -2.250000e+000
    endloop
  endfacet
  facet normal  0.000000e+000 -1.000000e+000  -0.000000e+000
    outer loop
      vertex -1.500000e+001  0.000000e+000 -7.500000e+000
      vertex -1.589711e+001  0.000000e+000 -2.250000e+000
      vertex -1.750000e+001  0.000000e+000 -6.830127e+000
    endloop
  endfacet
  facet normal  0.000000e+000 -1.000000e+000  0.000000e+000
    outer loop
      vertex -1.500000e+001  0.000000e+000  7.500000e+000
      vertex -1.750000e+001  0.000000e+000  6.830127e+000
      vertex -1.589711e+001  0.000000e+000  2.250000e+000
    endloop
  endfacet
  facet normal  0.000000e+000 -1.000000e+000  0.000000e+000
    outer loop
      vertex -1.500000e+001  0.000000e+000  7.500000e+000
      vertex -1.589711e+001  0.000000e+000  2.250000e+000
      vertex -1.425000e+001  0.000000e+000  3.897114e+000
    endloop
  endfacet
  facet normal  0.000000e+000 -1.000000e+000  0.000000e+000
    outer loop
      vertex -1.500000e+001  0.000000e+000  7.500000e+000
      vertex -1.425000e+001  0.000000e+000  3.897114e+000
      vertex -1.200000e+001  0.000000e+000  4.500000e+000
    endloop
  endfacet
  facet normal  0.000000e+000 -1.000000e+000  0.000000e+000
    outer loop
      vertex -1.500000e+001  0.000000e+000  7.500000e+000
      vertex -1.200000e+001  0.000000e+000  4.500000e+000
      vertex -9.750000e+000  0.000000e+000  3.897114e+000
    endloop
  endfacet
  facet normal  0.000000e+000 -1.000000e+000  0.000000e+000
    outer loop
      vertex -1.500000e+001  0.000000e+000  7.500000e+000
      vertex -9.750000e+000  0.000000e+000  3.897114e+000
      vertex  7.500000e+000  0.000000e+000 -4.075245e-017
    endloop
  endfacet
  facet normal  0.000000e+000 -1.000000e+000  0.000000e+000
    outer loop
      vertex -1.500000e+001  0.000000e+000  7.500000e+000
      vertex  7.500000e+000  0.000000e+000 -4.075245e-017
      vertex  8.102885e+000  0.000000e+000  2.250000e+000
    endloop
  endfacet
  facet normal  0.000000e+000 -1.000000e+000  0.000000e+000
    outer loop
      vertex -1.500000e+001  0.000000e+000  7.500000e+000
      vertex  8.102885e+000  0.000000e+000  2.250000e+000
      vertex  9.750000e+000  0.000000e+000  3.897114e+000
    endloop
  endfacet
  facet normal  0.000000e+000 -1.000000e+000  0.000000e+000
    outer loop
      vertex -1.500000e+001  0.000000e+000  7.500000e+000
      vertex  9.750000e+000  0.000000e+000  3.897114e+000
      vertex  1.200000e+001  0.000000e+000  4.500000e+000
    endloop
  endfacet
  facet normal  0.000000e+000 -1.000000e+000  0.000000e+000
    outer loop
      vertex  1.500000e+001  0.000000e+000  7.500000e+000
      vertex -1.500000e+001  0.000000e+000  7.500000e+000
      vertex  1.200000e+001  0.000000e+000  4.500000e+000
    endloop
  endfacet
  facet normal  0.000000e+000 -1.000000e+000  0.000000e+000
    outer loop
      vertex  1.500000e+001  0.000000e+000  7.500000e+000
      vertex  1.200000e+001  0.000000e+000  4.500000e+000
      vertex  1.425000e+001  0.000000e+000  3.897114e+000
    endloop
  endfacet
  facet normal  0.000000e+000 -1.000000e+000  0.000000e+000
    outer loop
      vertex  1.500000e+001  0.000000e+000  7.500000e+000
      vertex  1.425000e+001  0.000000e+000  3.897114e+000
      vertex  1.589711e+001  0.000000e+000  2.250000e+000
    endloop
  endfacet
  facet normal  0.000000e+000 -1.000000e+000  0.000000e+000
    outer loop
      vertex  1.500000e+001  0.000000e+000  7.500000e+000
      vertex  1.589711e+001  0.000000e+000  2.250000e+000
      vertex  1.650000e+001  0.000000e+000 -1.436974e-016
    endloop
  endfacet
  facet normal  0.000000e+000 -1.000000e+000  0.000000e+000
    outer loop
      vertex  1.500000e+001  0.000000e+000  7.500000e+000
      vertex  1.650000e+001  0.000000e+000 -1.436974e-016
      vertex  1.750000e+001  0.000000e+000  6.830127e+000
    endloop
  endfacet
  facet normal  0.000000e+000 -1.000000e+000  0.000000e+000
    outer loop
      vertex -1.933013e+001  0.000000e+000 -5.000000e+000
      vertex -1.750000e+001  0.000000e+000 -6.830127e+000
      vertex -2.000000e+001  0.000000e+000 -2.500000e+000
    endloop
  endfacet
  facet normal  0.000000e+000 -1.000000e+000  0.000000e+000
    outer loop
      vertex -2.000000e+001  0.000000e+000 -2.500000e+000
      vertex -1.750000e+001  0.000000e+000 -6.830127e+000
      vertex -1.650000e+001  0.000000e+000 -4.075245e-017
    endloop
  endfacet
  facet normal  -0.000000e+000 -1.000000e+000  0.000000e+000
    outer loop
      vertex -2.000000e+001  0.000000e+000 -2.500000e+000
      vertex -1.650000e+001  0.000000e+000 -4.075245e-017
      vertex -2.000000e+001  0.000000e+000  2.500000e+000
    endloop
  endfacet
  facet normal  0.000000e+000 -1.000000e+000  0.000000e+000
    outer loop
      vertex -2.000000e+001  0.000000e+000  2.500000e+000
      vertex -1.650000e+001  0.000000e+000 -4.075245e-017
      vertex -1.750000e+001  0.000000e+000  6.830127e+000
    endloop
  endfacet
  facet normal  0.000000e+000 -1.000000e+000  0.000000e+000
    outer loop
      vertex -2.000000e+001  0.000000e+000  2.500000e+000
      vertex -1.750000e+001  0.000000e+000  6.830127e+000
      vertex -1.933013e+001  0.000000e+000  5.000000e+000
    endloop
  endfacet
  facet normal  -0.000000e+000 -1.000000e+000  0.000000e+000
    outer loop
      vertex  1.750000e+001  0.000000e+000 -6.830127e+000
      vertex  1.933013e+001  0.000000e+000 -5.000000e+000
      vertex  1.650000e+001  0.000000e+000 -1.436974e-016
    endloop
  endfacet
  facet normal  0.000000e+000 -1.000000e+000  0.000000e+000
    outer loop
      vertex  1.650000e+001  0.000000e+000 -1.436974e-016
      vertex  1.933013e+001  0.000000e+000 -5.000000e+000
      vertex  2.000000e+001  0.000000e+000 -2.500000e+000
    endloop
  endfacet
  facet normal  0.000000e+000 -1.000000e+000  0.000000e+000
    outer loop
      vertex  1.650000e+001  0.000000e+000 -1.436974e-016
      vertex  2.000000e+001  0.000000e+000 -2.500000e+000
      vertex  1.933013e+001  0.000000e+000  5.000000e+000
    endloop
  endfacet
  facet normal  0.000000e+000 -1.000000e+000  0.000000e+000
    outer loop
      vertex  1.933013e+001  0.000000e+000  5.000000e+000
      vertex  2.000000e+001  0.000000e+000 -2.500000e+000
      vertex  2.000000e+001  0.000000e+000  2.500000e+000
    endloop
  endfacet
  facet normal  0.000000e+000  1.000000e+000  0.000000e+000
    outer loop
      vertex  1.750000e+001  1.000000e+001  6.830127e+000
      vertex  1.933013e+001  1.000000e+001  5.000000e+000
      vertex  1.650000e+001  1.000000e+001 -1.436974e-016
    endloop
  endfacet
  facet normal  -0.000000e+000  1.000000e+000  -0.000000e+000
    outer loop
      vertex  7.500000e+000  1.000000e+001 -4.075245e-017
      vertex -8.102885e+000  1.000000e+001  2.250000e+000
      vertex -9.750000e+000  1.000000e+001  3.897114e+000
    endloop
  endfacet
  facet normal  0.000000e+000  1.000000e+000  -0.000000e+000
    outer loop
      vertex  7.500000e+000  1.000000e+001 -4.075245e-017
      vertex -7.500000e+000  1.000000e+001 -1.142898e-015
      vertex -8.102885e+000  1.000000e+001  2.250000e+000
    endloop
  endfacet
  facet normal  0.000000e+000  1.000000e+000  -0.000000e+000
    outer loop
      vertex -1.589711e+001  1.000000e+001  2.250000e+000
      vertex -1.650000e+001  1.000000e+001 -4.075245e-017
      vertex -1.750000e+001  1.000000e+001  6.830127e+000
    endloop
  endfacet
  facet normal  0.000000e+000  1.000000e+000  0.000000e+000
    outer loop
      vertex -8.102885e+000  1.000000e+001 -2.250000e+000
      vertex  7.500000e+000  1.000000e+001 -4.075245e-017
      vertex -9.750000e+000  1.000000e+001 -3.897114e+000
    endloop
  endfacet
  facet normal  0.000000e+000  1.000000e+000  0.000000e+000
    outer loop
      vertex -7.500000e+000  1.000000e+001 -1.142898e-015
      vertex  7.500000e+000  1.000000e+001 -4.075245e-017
      vertex -8.102885e+000  1.000000e+001 -2.250000e+000
    endloop
  endfacet
  facet normal  0.000000e+000  1.000000e+000  0.000000e+000
    outer loop
      vertex -1.650000e+001  1.000000e+001 -4.075245e-017
      vertex -1.589711e+001  1.000000e+001 -2.250000e+000
      vertex -1.750000e+001  1.000000e+001 -6.830127e+000
    endloop
  endfacet
  facet normal  0.000000e+000  1.000000e+000  0.000000e+000
    outer loop
      vertex  1.500000e+001  1.000000e+001 -7.500000e+000
      vertex -1.500000e+001  1.000000e+001 -7.500000e+000
      vertex  1.200000e+001  1.000000e+001 -4.500000e+000
    endloop
  endfacet
  facet normal  -0.000000e+000  1.000000e+000  0.000000e+000
    outer loop
      vertex  1.500000e+001  1.000000e+001 -7.500000e+000
      vertex  1.200000e+001  1.000000e+001 -4.500000e+000
      vertex  1.425000e+001  1.000000e+001 -3.897114e+000
    endloop
  endfacet
  facet normal  -0.000000e+000  1.000000e+000  0.000000e+000
    outer loop
      vertex  1.500000e+001  1.000000e+001 -7.500000e+000
      vertex  1.425000e+001  1.000000e+001 -3.897114e+000
      vertex  1.589711e+001  1.000000e+001 -2.250000e+000
    endloop
  endfacet
  facet normal  -0.000000e+000  1.000000e+000  0.000000e+000
    outer loop
      vertex  1.500000e+001  1.000000e+001 -7.500000e+000
      vertex  1.589711e+001  1.000000e+001 -2.250000e+000
      vertex  1.650000e+001  1.000000e+001 -1.436974e-016
    endloop
  endfacet
  facet normal  0.000000e+000  1.000000e+000  0.000000e+000
    outer loop
      vertex  1.500000e+001  1.000000e+001 -7.500000e+000
      vertex  1.650000e+001  1.000000e+001 -1.436974e-016
      vertex  1.750000e+001  1.000000e+001 -6.830127e+000
    endloop
  endfacet
  facet normal  -0.000000e+000  1.000000e+000  0.000000e+000
    outer loop
      vertex -1.500000e+001  1.000000e+001 -7.500000e+000
      vertex -1.750000e+001  1.000000e+001 -6.830127e+000
      vertex -1.589711e+001  1.000000e+001 -2.250000e+000
    endloop
  endfacet
  facet normal  0.000000e+000  1.000000e+000  0.000000e+000
    outer loop
      vertex -1.500000e+001  1.000000e+001 -7.500000e+000
      vertex -1.589711e+001  1.000000e+001 -2.250000e+000
      vertex -1.425000e+001  1.000000e+001 -3.897114e+000
    endloop
  endfacet
  facet normal  0.000000e+000  1.000000e+000  0.000000e+000
    outer loop
      vertex -1.500000e+001  1.000000e+001 -7.500000e+000
      vertex -1.425000e+001  1.000000e+001 -3.897114e+000
      vertex -1.200000e+001  1.000000e+001 -4.500000e+000
    endloop
  endfacet
  facet normal  -0.000000e+000  1.000000e+000  0.000000e+000
    outer loop
      vertex -1.500000e+001  1.000000e+001 -7.500000e+000
      vertex -1.200000e+001  1.000000e+001 -4.500000e+000
      vertex -9.750000e+000  1.000000e+001 -3.897114e+000
    endloop
  endfacet
  facet normal  -0.000000e+000  1.000000e+000  0.000000e+000
    outer loop
      vertex -1.500000e+001  1.000000e+001 -7.500000e+000
      vertex -9.750000e+000  1.000000e+001 -3.897114e+000
      vertex  7.500000e+000  1.000000e+001 -4.075245e-017
    endloop
  endfacet
  facet normal  0.000000e+000  1.000000e+000  0.000000e+000
    outer loop
      vertex -1.500000e+001  1.000000e+001 -7.500000e+000
      vertex  7.500000e+000  1.000000e+001 -4.075245e-017
      vertex  8.102885e+000  1.000000e+001 -2.250000e+000
    endloop
  endfacet
  facet normal  0.000000e+000  1.000000e+000  0.000000e+000
    outer loop
      vertex -1.500000e+001  1.000000e+001 -7.500000e+000
      vertex  8.102885e+000  1.000000e+001 -2.250000e+000
      vertex  9.750000e+000  1.000000e+001 -3.897114e+000
    endloop
  endfacet
  facet normal  0.000000e+000  1.000000e+000  0.000000e+000
    outer loop
      vertex -1.500000e+001  1.000000e+001 -7.500000e+000
      vertex  9.750000e+000  1.000000e+001 -3.897114e+000
      vertex  1.200000e+001  1.000000e+001 -4.500000e+000
    endloop
  endfacet
  facet normal  0.000000e+000  1.000000e+000  0.000000e+000
    outer loop
      vertex -1.500000e+001  1.000000e+001  7.500000e+000
      vertex  1.200000e+001  1.000000e+001  4.500000e+000
      vertex  9.750000e+000  1.000000e+001  3.897114e+000
    endloop
  endfacet
  facet normal  0.000000e+000  1.000000e+000  0.000000e+000
    outer loop
      vertex -1.500000e+001  1.000000e+001  7.500000e+000
      vertex  9.750000e+000  1.000000e+001  3.897114e+000
      vertex  8.102885e+000  1.000000e+001  2.250000e+000
    endloop
  endfacet
  facet normal  0.000000e+000  1.000000e+000  0.000000e+000
    outer loop
      vertex -1.500000e+001  1.000000e+001  7.500000e+000
      vertex  8.102885e+000  1.000000e+001  2.250000e+000
      vertex  7.500000e+000  1.000000e+001 -4.075245e-017
    endloop
  endfacet
  facet normal  0.000000e+000  1.000000e+000  0.000000e+000
    outer loop
      vertex -1.500000e+001  1.000000e+001  7.500000e+000
      vertex  7.500000e+000  1.000000e+001 -4.075245e-017
      vertex -9.750000e+000  1.000000e+001  3.897114e+000
    endloop
  endfacet
  facet normal  0.000000e+000  1.000000e+000  0.000000e+000
    outer loop
      vertex -1.500000e+001  1.000000e+001  7.500000e+000
      vertex -9.750000e+000  1.000000e+001  3.897114e+000
      vertex -1.200000e+001  1.000000e+001  4.500000e+000
    endloop
  endfacet
  facet normal  0.000000e+000  1.000000e+000  0.000000e+000
    outer loop
      vertex -1.500000e+001  1.000000e+001  7.500000e+000
      vertex -1.200000e+001  1.000000e+001  4.500000e+000
      vertex -1.425000e+001  1.000000e+001  3.897114e+000
    endloop
  endfacet
  facet normal  0.000000e+000  1.000000e+000  0.000000e+000
    outer loop
      vertex -1.500000e+001  1.000000e+001  7.500000e+000
      vertex -1.425000e+001  1.000000e+001  3.897114e+000
      vertex -1.589711e+001  1.000000e+001  2.250000e+000
    endloop
  endfacet
  facet normal  0.000000e+000  1.000000e+000  -0.000000e+000
    outer loop
      vertex -1.500000e+001  1.000000e+001  7.500000e+000
      vertex -1.589711e+001  1.000000e+001  2.250000e+000
      vertex -1.750000e+001  1.000000e+001  6.830127e+000
    endloop
  endfacet
  facet normal  0.000000e+000  1.000000e+000  0.000000e+000
    outer loop
      vertex  1.500000e+001  1.000000e+001  7.500000e+000
      vertex  1.750000e+001  1.000000e+001  6.830127e+000
      vertex  1.650000e+001  1.000000e+001 -1.436974e-016
    endloop
  endfacet
  facet normal  0.000000e+000  1.000000e+000  0.000000e+000
    outer loop
      vertex  1.500000e+001  1.000000e+001  7.500000e+000
      vertex  1.650000e+001  1.000000e+001 -1.436974e-016
      vertex  1.589711e+001  1.000000e+001  2.250000e+000
    endloop
  endfacet
  facet normal  0.000000e+000  1.000000e+000  0.000000e+000
    outer loop
      vertex  1.500000e+001  1.000000e+001  7.500000e+000
      vertex  1.589711e+001  1.000000e+001  2.250000e+000
      vertex  1.425000e+001  1.000000e+001  3.897114e+000
    endloop
  endfacet
  facet normal  0.000000e+000  1.000000e+000  -0.000000e+000
    outer loop
      vertex  1.500000e+001  1.000000e+001  7.500000e+000
      vertex  1.425000e+001  1.000000e+001  3.897114e+000
      vertex  1.200000e+001  1.000000e+001  4.500000e+000
    endloop
  endfacet
  facet normal  0.000000e+000  1.000000e+000  -0.000000e+000
    outer loop
      vertex  1.500000e+001  1.000000e+001  7.500000e+000
      vertex  1.200000e+001  1.000000e+001  4.500000e+000
      vertex -1.500000e+001  1.000000e+001  7.500000e+000
    endloop
  endfacet
  facet normal  0.000000e+000  1.000000e+000  0.000000e+000
    outer loop
      vertex -1.933013e+001  1.000000e+001  5.000000e+000
      vertex -1.750000e+001  1.000000e+001  6.830127e+000
      vertex -2.000000e+001  1.000000e+001  2.500000e+000
    endloop
  endfacet
  facet normal  -0.000000e+000  1.000000e+000  0.000000e+000
    outer loop
      vertex -2.000000e+001  1.000000e+001  2.500000e+000
      vertex -1.750000e+001  1.000000e+001  6.830127e+000
      vertex -1.650000e+001  1.000000e+001 -4.075245e-017
    endloop
  endfacet
  facet normal  0.000000e+000  1.000000e+000  0.000000e+000
    outer loop
      vertex -2.000000e+001  1.000000e+001  2.500000e+000
      vertex -1.650000e+001  1.000000e+001 -4.075245e-017
      vertex -2.000000e+001  1.000000e+001 -2.500000e+000
    endloop
  endfacet
  facet normal  -0.000000e+000  1.000000e+000  0.000000e+000
    outer loop
      vertex -2.000000e+001  1.000000e+001 -2.500000e+000
      vertex -1.650000e+001  1.000000e+001 -4.075245e-017
      vertex -1.750000e+001  1.000000e+001 -6.830127e+000
    endloop
  endfacet
  facet normal  0.000000e+000  1.000000e+000  0.000000e+000
    outer loop
      vertex -2.000000e+001  1.000000e+001 -2.500000e+000
      vertex -1.750000e+001  1.000000e+001 -6.830127e+000
      vertex -1.933013e+001  1.000000e+001 -5.000000e+000
    endloop
  endfacet
  facet normal  0.000000e+000  1.000000e+000  0.000000e+000
    outer loop
      vertex  1.750000e+001  1.000000e+001 -6.830127e+000
      vertex  1.650000e+001  1.000000e+001 -1.436974e-016
      vertex  1.933013e+001  1.000000e+001 -5.000000e+000
    endloop
  endfacet
  facet normal  0.000000e+000  1.000000e+000  -0.000000e+000
    outer loop
      vertex  1.933013e+001  1.000000e+001 -5.000000e+000
      vertex  1.650000e+001  1.000000e+001 -1.436974e-016
      vertex  2.000000e+001  1.000000e+001 -2.500000e+000
    endloop
  endfacet
  facet normal  0.000000e+000  1.000000e+000  0.000000e+000
    outer loop
      vertex  1.650000e+001  1.000000e+001 -1.436974e-016
      vertex  1.933013e+001  1.000000e+001  5.000000e+000
      vertex  2.000000e+001  1.000000e+001 -2.500000e+000
    endloop
  endfacet
  facet normal  0.000000e+000  1.000000e+000  -0.000000e+000
    outer loop
      vertex  2.000000e+001  1.000000e+001 -2.500000e+000
      vertex  1.933013e+001  1.000000e+001  5.000000e+000
      vertex  2.000000e+001  1.000000e+001  2.500000e+000
    endloop
  endfacet
  facet normal  9.659259e-001  -0.000000e+000  2.588189e-001
    outer loop
      vertex -1.650000e+001  1.000000e+001 -4.075245e-017
      vertex -1.589711e+001  0.000000e+000 -2.250000e+000
      vertex -1.589711e+001  1.000000e+001 -2.250000e+000
    endloop
  endfacet
  facet normal  7.071066e-001  0.000000e+000  7.071069e-001
    outer loop
      vertex -1.589711e+001  1.000000e+001 -2.250000e+000
      vertex -1.589711e+001  0.000000e+000 -2.250000e+000
      vertex -1.425000e+001  0.000000e+000 -3.897114e+000
    endloop
  endfacet
  facet normal  7.071066e-001  -0.000000e+000  7.071069e-001
    outer loop
      vertex -1.589711e+001  1.000000e+001 -2.250000e+000
      vertex -1.425000e+001  0.000000e+000 -3.897114e+000
      vertex -1.425000e+001  1.000000e+001 -3.897114e+000
    endloop
  endfacet
  facet normal  2.588191e-001  0.000000e+000  9.659258e-001
    outer loop
      vertex -1.425000e+001  1.000000e+001 -3.897114e+000
      vertex -1.425000e+001  0.000000e+000 -3.897114e+000
      vertex -1.200000e+001  0.000000e+000 -4.500000e+000
    endloop
  endfacet
  facet normal  2.588191e-001  -0.000000e+000  9.659258e-001
    outer loop
      vertex -1.425000e+001  1.000000e+001 -3.897114e+000
      vertex -1.200000e+001  0.000000e+000 -4.500000e+000
      vertex -1.200000e+001  1.000000e+001 -4.500000e+000
    endloop
  endfacet
  facet normal  9.659259e-001  0.000000e+000  2.588189e-001
    outer loop
      vertex -1.589711e+001  0.000000e+000 -2.250000e+000
      vertex -1.650000e+001  1.000000e+001 -4.075245e-017
      vertex -1.650000e+001  0.000000e+000 -4.075245e-017
    endloop
  endfacet
  facet normal  9.659259e-001  0.000000e+000 -2.588189e-001
    outer loop
      vertex -1.650000e+001  0.000000e+000 -4.075245e-017
      vertex -1.650000e+001  1.000000e+001 -4.075245e-017
      vertex -1.589711e+001  1.000000e+001  2.250000e+000
    endloop
  endfacet
  facet normal  9.659259e-001  0.000000e+000 -2.588189e-001
    outer loop
      vertex -1.650000e+001  0.000000e+000 -4.075245e-017
      vertex -1.589711e+001  1.000000e+001  2.250000e+000
      vertex -1.589711e+001  0.000000e+000  2.250000e+000
    endloop
  endfacet
  facet normal  7.071066e-001  0.000000e+000 -7.071069e-001
    outer loop
      vertex -1.589711e+001  0.000000e+000  2.250000e+000
      vertex -1.589711e+001  1.000000e+001  2.250000e+000
      vertex -1.425000e+001  1.000000e+001  3.897114e+000
    endloop
  endfacet
  facet normal  7.071066e-001  0.000000e+000 -7.071069e-001
    outer loop
      vertex -1.589711e+001  0.000000e+000  2.250000e+000
      vertex -1.425000e+001  1.000000e+001  3.897114e+000
      vertex -1.425000e+001  0.000000e+000  3.897114e+000
    endloop
  endfacet
  facet normal  2.588191e-001  0.000000e+000 -9.659258e-001
    outer loop
      vertex -1.425000e+001  0.000000e+000  3.897114e+000
      vertex -1.425000e+001  1.000000e+001  3.897114e+000
      vertex -1.200000e+001  1.000000e+001  4.500000e+000
    endloop
  endfacet
  facet normal  2.588191e-001  0.000000e+000 -9.659258e-001
    outer loop
      vertex -1.425000e+001  0.000000e+000  3.897114e+000
      vertex -1.200000e+001  1.000000e+001  4.500000e+000
      vertex -1.200000e+001  0.000000e+000  4.500000e+000
    endloop
  endfacet
  facet normal  9.659259e-001  -0.000000e+000  2.588189e-001
    outer loop
      vertex  7.500000e+000  1.000000e+001 -4.075245e-017
      vertex  8.102885e+000  0.000000e+000 -2.250000e+000
      vertex  8.102885e+000  1.000000e+001 -2.250000e+000
    endloop
  endfacet
  facet normal  7.071066e-001  0.000000e+000  7.071069e-001
    outer loop
      vertex  8.102885e+000  1.000000e+001 -2.250000e+000
      vertex  8.102885e+000  0.000000e+000 -2.250000e+000
      vertex  9.750000e+000  0.000000e+000 -3.897114e+000
    endloop
  endfacet
  facet normal  7.071066e-001  -0.000000e+000  7.071069e-001
    outer loop
      vertex  8.102885e+000  1.000000e+001 -2.250000e+000
      vertex  9.750000e+000  0.000000e+000 -3.897114e+000
      vertex  9.750000e+000  1.000000e+001 -3.897114e+000
    endloop
  endfacet
  facet normal  2.588191e-001  0.000000e+000  9.659258e-001
    outer loop
      vertex  9.750000e+000  1.000000e+001 -3.897114e+000
      vertex  9.750000e+000  0.000000e+000 -3.897114e+000
      vertex  1.200000e+001  0.000000e+000 -4.500000e+000
    endloop
  endfacet
  facet normal  2.588191e-001  -0.000000e+000  9.659258e-001
    outer loop
      vertex  9.750000e+000  1.000000e+001 -3.897114e+000
      vertex  1.200000e+001  0.000000e+000 -4.500000e+000
      vertex  1.200000e+001  1.000000e+001 -4.500000e+000
    endloop
  endfacet
  facet normal  9.659259e-001  0.000000e+000  2.588189e-001
    outer loop
      vertex  8.102885e+000  0.000000e+000 -2.250000e+000
      vertex  7.500000e+000  1.000000e+001 -4.075245e-017
      vertex  7.500000e+000  0.000000e+000 -4.075245e-017
    endloop
  endfacet
  facet normal  9.659259e-001  0.000000e+000 -2.588189e-001
    outer loop
      vertex  7.500000e+000  0.000000e+000 -4.075245e-017
      vertex  7.500000e+000  1.000000e+001 -4.075245e-017
      vertex  8.102885e+000  1.000000e+001  2.250000e+000
    endloop
  endfacet
  facet normal  9.659259e-001  0.000000e+000 -2.588189e-001
    outer loop
      vertex  7.500000e+000  0.000000e+000 -4.075245e-017
      vertex  8.102885e+000  1.000000e+001  2.250000e+000
      vertex  8.102885e+000  0.000000e+000  2.250000e+000
    endloop
  endfacet
  facet normal  7.071066e-001  0.000000e+000 -7.071069e-001
    outer loop
      vertex  8.102885e+000  0.000000e+000  2.250000e+000
      vertex  8.102885e+000  1.000000e+001  2.250000e+000
      vertex  9.750000e+000  1.000000e+001  3.897114e+000
    endloop
  endfacet
  facet normal  7.071066e-001  0.000000e+000 -7.071069e-001
    outer loop
      vertex  8.102885e+000  0.000000e+000  2.250000e+000
      vertex  9.750000e+000  1.000000e+001  3.897114e+000
      vertex  9.750000e+000  0.000000e+000  3.897114e+000
    endloop
  endfacet
  facet normal  2.588191e-001  0.000000e+000 -9.659258e-001
    outer loop
      vertex  9.750000e+000  0.000000e+000  3.897114e+000
      vertex  9.750000e+000  1.000000e+001  3.897114e+000
      vertex  1.200000e+001  1.000000e+001  4.500000e+000
    endloop
  endfacet
  facet normal  2.588191e-001  0.000000e+000 -9.659258e-001
    outer loop
      vertex  9.750000e+000  0.000000e+000  3.897114e+000
      vertex  1.200000e+001  1.000000e+001  4.500000e+000
      vertex  1.200000e+001  0.000000e+000  4.500000e+000
    endloop
  endfacet
endsolid CATIA STL
