solid CATIA STL
  facet normal -5.877853e-001 -8.090170e-001  0.000000e+000
    outer loop
      vertex  1.236068e+000  3.804226e+000  1.000000e+000
      vertex  3.236068e+000  2.351141e+000 -1.000000e+000
      vertex  3.236068e+000  2.351141e+000  1.000000e+000
    endloop
  endfacet
  facet normal -9.510565e-001 -3.090170e-001  -0.000000e+000
    outer loop
      vertex  3.236068e+000  2.351141e+000  1.000000e+000
      vertex  3.236068e+000  2.351141e+000 -1.000000e+000
      vertex  4.000000e+000  4.898425e-016 -1.000000e+000
    endloop
  endfacet
  facet normal -9.510565e-001 -3.090170e-001  0.000000e+000
    outer loop
      vertex  3.236068e+000  2.351141e+000  1.000000e+000
      vertex  4.000000e+000  4.898425e-016 -1.000000e+000
      vertex  4.000000e+000  4.898425e-016  1.000000e+000
    endloop
  endfacet
  facet normal -5.877853e-001 -8.090170e-001  -0.000000e+000
    outer loop
      vertex  3.236068e+000  2.351141e+000 -1.000000e+000
      vertex  1.236068e+000  3.804226e+000  1.000000e+000
      vertex  1.236068e+000  3.804226e+000 -1.000000e+000
    endloop
  endfacet
  facet normal  0.000000e+000 -1.000000e+000  0.000000e+000
    outer loop
      vertex  1.236068e+000  3.804226e+000 -1.000000e+000
      vertex  1.236068e+000  3.804226e+000  1.000000e+000
      vertex -1.236068e+000  3.804226e+000  1.000000e+000
    endloop
  endfacet
  facet normal  0.000000e+000 -1.000000e+000  0.000000e+000
    outer loop
      vertex  1.236068e+000  3.804226e+000 -1.000000e+000
      vertex -1.236068e+000  3.804226e+000  1.000000e+000
      vertex -1.236068e+000  3.804226e+000 -1.000000e+000
    endloop
  endfacet
  facet normal  5.877853e-001 -8.090170e-001  0.000000e+000
    outer loop
      vertex -1.236068e+000  3.804226e+000 -1.000000e+000
      vertex -1.236068e+000  3.804226e+000  1.000000e+000
      vertex -3.236068e+000  2.351141e+000  1.000000e+000
    endloop
  endfacet
  facet normal  5.877853e-001 -8.090170e-001  0.000000e+000
    outer loop
      vertex -1.236068e+000  3.804226e+000 -1.000000e+000
      vertex -3.236068e+000  2.351141e+000  1.000000e+000
      vertex -3.236068e+000  2.351141e+000 -1.000000e+000
    endloop
  endfacet
  facet normal  9.510565e-001 -3.090170e-001  0.000000e+000
    outer loop
      vertex -3.236068e+000  2.351141e+000 -1.000000e+000
      vertex -3.236068e+000  2.351141e+000  1.000000e+000
      vertex -4.000000e+000 -9.796851e-016  1.000000e+000
    endloop
  endfacet
  facet normal  9.510565e-001 -3.090170e-001 -1.513697e-016
    outer loop
      vertex -3.236068e+000  2.351141e+000 -1.000000e+000
      vertex -4.000000e+000 -9.796851e-016  1.000000e+000
      vertex -4.000000e+000  0.000000e+000 -1.000000e+000
    endloop
  endfacet
  facet normal -9.749279e-001 -2.225209e-001  0.000000e+000
    outer loop
      vertex -6.000000e+000  0.000000e+000  1.000000e+000
      vertex -6.000000e+000  0.000000e+000 -1.000000e+000
      vertex -5.405813e+000 -2.603302e+000  1.000000e+000
    endloop
  endfacet
  facet normal -9.749279e-001 -2.225209e-001  -0.000000e+000
    outer loop
      vertex -5.405813e+000 -2.603302e+000  1.000000e+000
      vertex -6.000000e+000  0.000000e+000 -1.000000e+000
      vertex -5.405813e+000 -2.603302e+000 -1.000000e+000
    endloop
  endfacet
  facet normal -7.818315e-001 -6.234898e-001  0.000000e+000
    outer loop
      vertex -5.405813e+000 -2.603302e+000  1.000000e+000
      vertex -5.405813e+000 -2.603302e+000 -1.000000e+000
      vertex -3.740939e+000 -4.690989e+000  1.000000e+000
    endloop
  endfacet
  facet normal -7.818315e-001 -6.234898e-001  -0.000000e+000
    outer loop
      vertex -3.740939e+000 -4.690989e+000  1.000000e+000
      vertex -5.405813e+000 -2.603302e+000 -1.000000e+000
      vertex -3.740939e+000 -4.690989e+000 -1.000000e+000
    endloop
  endfacet
  facet normal -4.338837e-001 -9.009689e-001  0.000000e+000
    outer loop
      vertex -3.740939e+000 -4.690989e+000  1.000000e+000
      vertex -3.740939e+000 -4.690989e+000 -1.000000e+000
      vertex -1.335126e+000 -5.849567e+000  1.000000e+000
    endloop
  endfacet
  facet normal -4.338837e-001 -9.009689e-001  -0.000000e+000
    outer loop
      vertex -1.335126e+000 -5.849567e+000  1.000000e+000
      vertex -3.740939e+000 -4.690989e+000 -1.000000e+000
      vertex -1.335126e+000 -5.849567e+000 -1.000000e+000
    endloop
  endfacet
  facet normal  0.000000e+000 -1.000000e+000  0.000000e+000
    outer loop
      vertex -1.335126e+000 -5.849567e+000  1.000000e+000
      vertex -1.335126e+000 -5.849567e+000 -1.000000e+000
      vertex  1.335126e+000 -5.849567e+000  1.000000e+000
    endloop
  endfacet
  facet normal  0.000000e+000 -1.000000e+000  -0.000000e+000
    outer loop
      vertex  1.335126e+000 -5.849567e+000  1.000000e+000
      vertex -1.335126e+000 -5.849567e+000 -1.000000e+000
      vertex  1.335126e+000 -5.849567e+000 -1.000000e+000
    endloop
  endfacet
  facet normal  4.338837e-001 -9.009689e-001  0.000000e+000
    outer loop
      vertex  1.335126e+000 -5.849567e+000  1.000000e+000
      vertex  1.335126e+000 -5.849567e+000 -1.000000e+000
      vertex  3.740939e+000 -4.690989e+000  1.000000e+000
    endloop
  endfacet
  facet normal  4.338837e-001 -9.009689e-001  0.000000e+000
    outer loop
      vertex  3.740939e+000 -4.690989e+000  1.000000e+000
      vertex  1.335126e+000 -5.849567e+000 -1.000000e+000
      vertex  3.740939e+000 -4.690989e+000 -1.000000e+000
    endloop
  endfacet
  facet normal  7.818315e-001 -6.234898e-001  0.000000e+000
    outer loop
      vertex  3.740939e+000 -4.690989e+000  1.000000e+000
      vertex  3.740939e+000 -4.690989e+000 -1.000000e+000
      vertex  5.405813e+000 -2.603302e+000  1.000000e+000
    endloop
  endfacet
  facet normal  7.818315e-001 -6.234898e-001  0.000000e+000
    outer loop
      vertex  5.405813e+000 -2.603302e+000  1.000000e+000
      vertex  3.740939e+000 -4.690989e+000 -1.000000e+000
      vertex  5.405813e+000 -2.603302e+000 -1.000000e+000
    endloop
  endfacet
  facet normal  9.749279e-001 -2.225209e-001  0.000000e+000
    outer loop
      vertex  5.405813e+000 -2.603302e+000  1.000000e+000
      vertex  5.405813e+000 -2.603302e+000 -1.000000e+000
      vertex  6.000000e+000  7.347638e-016  1.000000e+000
    endloop
  endfacet
  facet normal  9.749279e-001 -2.225209e-001  0.000000e+000
    outer loop
      vertex  6.000000e+000  7.347638e-016  1.000000e+000
      vertex  5.405813e+000 -2.603302e+000 -1.000000e+000
      vertex  6.000000e+000  7.347638e-016 -1.000000e+000
    endloop
  endfacet
  facet normal  -0.000000e+000  0.000000e+000 -1.000000e+000
    outer loop
      vertex -6.000000e+000  0.000000e+000 -1.000000e+000
      vertex -3.236068e+000 -2.351141e+000 -1.000000e+000
      vertex -5.405813e+000 -2.603302e+000 -1.000000e+000
    endloop
  endfacet
  facet normal  0.000000e+000  0.000000e+000 -1.000000e+000
    outer loop
      vertex -5.405813e+000 -2.603302e+000 -1.000000e+000
      vertex -3.236068e+000 -2.351141e+000 -1.000000e+000
      vertex -1.236068e+000 -3.804226e+000 -1.000000e+000
    endloop
  endfacet
  facet normal  -0.000000e+000  0.000000e+000 -1.000000e+000
    outer loop
      vertex -5.405813e+000 -2.603302e+000 -1.000000e+000
      vertex -1.236068e+000 -3.804226e+000 -1.000000e+000
      vertex -3.740939e+000 -4.690989e+000 -1.000000e+000
    endloop
  endfacet
  facet normal  0.000000e+000  0.000000e+000 -1.000000e+000
    outer loop
      vertex -3.740939e+000 -4.690989e+000 -1.000000e+000
      vertex -1.236068e+000 -3.804226e+000 -1.000000e+000
      vertex  1.236068e+000 -3.804226e+000 -1.000000e+000
    endloop
  endfacet
  facet normal  0.000000e+000  0.000000e+000 -9.999999e-001
    outer loop
      vertex -3.740939e+000 -4.690989e+000 -1.000000e+000
      vertex  1.236068e+000 -3.804226e+000 -1.000000e+000
      vertex -1.335126e+000 -5.849567e+000 -1.000000e+000
    endloop
  endfacet
  facet normal  0.000000e+000  0.000000e+000 -1.000000e+000
    outer loop
      vertex -1.335126e+000 -5.849567e+000 -1.000000e+000
      vertex  1.236068e+000 -3.804226e+000 -1.000000e+000
      vertex  3.740939e+000 -4.690989e+000 -1.000000e+000
    endloop
  endfacet
  facet normal  0.000000e+000  0.000000e+000 -1.000000e+000
    outer loop
      vertex -1.335126e+000 -5.849567e+000 -1.000000e+000
      vertex  3.740939e+000 -4.690989e+000 -1.000000e+000
      vertex  1.335126e+000 -5.849567e+000 -1.000000e+000
    endloop
  endfacet
  facet normal  0.000000e+000  0.000000e+000 -1.000000e+000
    outer loop
      vertex -3.236068e+000 -2.351141e+000 -1.000000e+000
      vertex -6.000000e+000  0.000000e+000 -1.000000e+000
      vertex -4.000000e+000  0.000000e+000 -1.000000e+000
    endloop
  endfacet
  facet normal  0.000000e+000  0.000000e+000 -1.000000e+000
    outer loop
      vertex -4.000000e+000  0.000000e+000 -1.000000e+000
      vertex -6.000000e+000  0.000000e+000 -1.000000e+000
      vertex -5.405813e+000  2.603302e+000 -1.000000e+000
    endloop
  endfacet
  facet normal  0.000000e+000  0.000000e+000 -1.000000e+000
    outer loop
      vertex -4.000000e+000  0.000000e+000 -1.000000e+000
      vertex -5.405813e+000  2.603302e+000 -1.000000e+000
      vertex -3.236068e+000  2.351141e+000 -1.000000e+000
    endloop
  endfacet
  facet normal  0.000000e+000  0.000000e+000 -1.000000e+000
    outer loop
      vertex -3.236068e+000  2.351141e+000 -1.000000e+000
      vertex -5.405813e+000  2.603302e+000 -1.000000e+000
      vertex -3.740939e+000  4.690989e+000 -1.000000e+000
    endloop
  endfacet
  facet normal  0.000000e+000  0.000000e+000 -1.000000e+000
    outer loop
      vertex -3.236068e+000  2.351141e+000 -1.000000e+000
      vertex -3.740939e+000  4.690989e+000 -1.000000e+000
      vertex -1.236068e+000  3.804226e+000 -1.000000e+000
    endloop
  endfacet
  facet normal  0.000000e+000  0.000000e+000 -1.000000e+000
    outer loop
      vertex -1.236068e+000  3.804226e+000 -1.000000e+000
      vertex -3.740939e+000  4.690989e+000 -1.000000e+000
      vertex -1.335126e+000  5.849567e+000 -1.000000e+000
    endloop
  endfacet
  facet normal  0.000000e+000  0.000000e+000 -1.000000e+000
    outer loop
      vertex -1.236068e+000  3.804226e+000 -1.000000e+000
      vertex -1.335126e+000  5.849567e+000 -1.000000e+000
      vertex  1.236068e+000  3.804226e+000 -1.000000e+000
    endloop
  endfacet
  facet normal  0.000000e+000  0.000000e+000 -1.000000e+000
    outer loop
      vertex  1.236068e+000  3.804226e+000 -1.000000e+000
      vertex -1.335126e+000  5.849567e+000 -1.000000e+000
      vertex  1.335126e+000  5.849567e+000 -1.000000e+000
    endloop
  endfacet
  facet normal  0.000000e+000  -0.000000e+000 -1.000000e+000
    outer loop
      vertex  1.236068e+000  3.804226e+000 -1.000000e+000
      vertex  1.335126e+000  5.849567e+000 -1.000000e+000
      vertex  3.740939e+000  4.690989e+000 -1.000000e+000
    endloop
  endfacet
  facet normal  0.000000e+000  0.000000e+000 -1.000000e+000
    outer loop
      vertex  6.000000e+000  7.347638e-016 -1.000000e+000
      vertex  3.236068e+000  2.351141e+000 -1.000000e+000
      vertex  5.405813e+000  2.603302e+000 -1.000000e+000
    endloop
  endfacet
  facet normal  -0.000000e+000  0.000000e+000 -1.000000e+000
    outer loop
      vertex  5.405813e+000  2.603302e+000 -1.000000e+000
      vertex  3.236068e+000  2.351141e+000 -1.000000e+000
      vertex  1.236068e+000  3.804226e+000 -1.000000e+000
    endloop
  endfacet
  facet normal  0.000000e+000  0.000000e+000 -1.000000e+000
    outer loop
      vertex  5.405813e+000  2.603302e+000 -1.000000e+000
      vertex  1.236068e+000  3.804226e+000 -1.000000e+000
      vertex  3.740939e+000  4.690989e+000 -1.000000e+000
    endloop
  endfacet
  facet normal  -0.000000e+000  0.000000e+000 -1.000000e+000
    outer loop
      vertex  3.236068e+000  2.351141e+000 -1.000000e+000
      vertex  6.000000e+000  7.347638e-016 -1.000000e+000
      vertex  4.000000e+000  4.898425e-016 -1.000000e+000
    endloop
  endfacet
  facet normal  0.000000e+000  0.000000e+000 -1.000000e+000
    outer loop
      vertex  4.000000e+000  4.898425e-016 -1.000000e+000
      vertex  6.000000e+000  7.347638e-016 -1.000000e+000
      vertex  5.405813e+000 -2.603302e+000 -1.000000e+000
    endloop
  endfacet
  facet normal  0.000000e+000  0.000000e+000 -1.000000e+000
    outer loop
      vertex  4.000000e+000  4.898425e-016 -1.000000e+000
      vertex  5.405813e+000 -2.603302e+000 -1.000000e+000
      vertex  3.236068e+000 -2.351141e+000 -1.000000e+000
    endloop
  endfacet
  facet normal  0.000000e+000  0.000000e+000 -1.000000e+000
    outer loop
      vertex  3.236068e+000 -2.351141e+000 -1.000000e+000
      vertex  5.405813e+000 -2.603302e+000 -1.000000e+000
      vertex  3.740939e+000 -4.690989e+000 -1.000000e+000
    endloop
  endfacet
  facet normal  0.000000e+000  0.000000e+000 -1.000000e+000
    outer loop
      vertex  3.236068e+000 -2.351141e+000 -1.000000e+000
      vertex  3.740939e+000 -4.690989e+000 -1.000000e+000
      vertex  1.236068e+000 -3.804226e+000 -1.000000e+000
    endloop
  endfacet
  facet normal  0.000000e+000  0.000000e+000  1.000000e+000
    outer loop
      vertex  1.335126e+000 -5.849567e+000  1.000000e+000
      vertex  3.740939e+000 -4.690989e+000  1.000000e+000
      vertex -1.335126e+000 -5.849567e+000  1.000000e+000
    endloop
  endfacet
  facet normal  0.000000e+000  0.000000e+000  1.000000e+000
    outer loop
      vertex -1.335126e+000 -5.849567e+000  1.000000e+000
      vertex  3.740939e+000 -4.690989e+000  1.000000e+000
      vertex  1.236068e+000 -3.804226e+000  1.000000e+000
    endloop
  endfacet
  facet normal  0.000000e+000  0.000000e+000  9.999999e-001
    outer loop
      vertex -1.335126e+000 -5.849567e+000  1.000000e+000
      vertex  1.236068e+000 -3.804226e+000  1.000000e+000
      vertex -3.740939e+000 -4.690989e+000  1.000000e+000
    endloop
  endfacet
  facet normal  0.000000e+000  0.000000e+000  1.000000e+000
    outer loop
      vertex -3.740939e+000 -4.690989e+000  1.000000e+000
      vertex  1.236068e+000 -3.804226e+000  1.000000e+000
      vertex -1.236068e+000 -3.804226e+000  1.000000e+000
    endloop
  endfacet
  facet normal  0.000000e+000  0.000000e+000  1.000000e+000
    outer loop
      vertex -3.740939e+000 -4.690989e+000  1.000000e+000
      vertex -1.236068e+000 -3.804226e+000  1.000000e+000
      vertex -5.405813e+000 -2.603302e+000  1.000000e+000
    endloop
  endfacet
  facet normal  -0.000000e+000  0.000000e+000  1.000000e+000
    outer loop
      vertex -5.405813e+000 -2.603302e+000  1.000000e+000
      vertex -1.236068e+000 -3.804226e+000  1.000000e+000
      vertex -3.236068e+000 -2.351141e+000  1.000000e+000
    endloop
  endfacet
  facet normal  0.000000e+000  0.000000e+000  1.000000e+000
    outer loop
      vertex -5.405813e+000 -2.603302e+000  1.000000e+000
      vertex -3.236068e+000 -2.351141e+000  1.000000e+000
      vertex -6.000000e+000  0.000000e+000  1.000000e+000
    endloop
  endfacet
  facet normal  0.000000e+000  0.000000e+000  1.000000e+000
    outer loop
      vertex -6.000000e+000  0.000000e+000  1.000000e+000
      vertex -3.236068e+000 -2.351141e+000  1.000000e+000
      vertex -4.000000e+000 -9.796851e-016  1.000000e+000
    endloop
  endfacet
  facet normal  0.000000e+000  0.000000e+000  1.000000e+000
    outer loop
      vertex -6.000000e+000  0.000000e+000  1.000000e+000
      vertex -4.000000e+000 -9.796851e-016  1.000000e+000
      vertex -5.405813e+000  2.603302e+000  1.000000e+000
    endloop
  endfacet
  facet normal  0.000000e+000  0.000000e+000  1.000000e+000
    outer loop
      vertex -5.405813e+000  2.603302e+000  1.000000e+000
      vertex -4.000000e+000 -9.796851e-016  1.000000e+000
      vertex -3.236068e+000  2.351141e+000  1.000000e+000
    endloop
  endfacet
  facet normal  0.000000e+000  0.000000e+000  1.000000e+000
    outer loop
      vertex -5.405813e+000  2.603302e+000  1.000000e+000
      vertex -3.236068e+000  2.351141e+000  1.000000e+000
      vertex -3.740939e+000  4.690989e+000  1.000000e+000
    endloop
  endfacet
  facet normal  0.000000e+000  0.000000e+000  1.000000e+000
    outer loop
      vertex -3.740939e+000  4.690989e+000  1.000000e+000
      vertex -3.236068e+000  2.351141e+000  1.000000e+000
      vertex -1.236068e+000  3.804226e+000  1.000000e+000
    endloop
  endfacet
  facet normal  0.000000e+000  0.000000e+000  1.000000e+000
    outer loop
      vertex -3.740939e+000  4.690989e+000  1.000000e+000
      vertex -1.236068e+000  3.804226e+000  1.000000e+000
      vertex -1.335126e+000  5.849567e+000  1.000000e+000
    endloop
  endfacet
  facet normal  0.000000e+000  0.000000e+000  1.000000e+000
    outer loop
      vertex -1.335126e+000  5.849567e+000  1.000000e+000
      vertex -1.236068e+000  3.804226e+000  1.000000e+000
      vertex  1.236068e+000  3.804226e+000  1.000000e+000
    endloop
  endfacet
  facet normal  0.000000e+000  -0.000000e+000  1.000000e+000
    outer loop
      vertex -1.335126e+000  5.849567e+000  1.000000e+000
      vertex  1.236068e+000  3.804226e+000  1.000000e+000
      vertex  1.335126e+000  5.849567e+000  1.000000e+000
    endloop
  endfacet
  facet normal  0.000000e+000  0.000000e+000  1.000000e+000
    outer loop
      vertex  1.335126e+000  5.849567e+000  1.000000e+000
      vertex  1.236068e+000  3.804226e+000  1.000000e+000
      vertex  3.740939e+000  4.690989e+000  1.000000e+000
    endloop
  endfacet
  facet normal  -0.000000e+000  0.000000e+000  1.000000e+000
    outer loop
      vertex  3.740939e+000  4.690989e+000  1.000000e+000
      vertex  1.236068e+000  3.804226e+000  1.000000e+000
      vertex  5.405813e+000  2.603302e+000  1.000000e+000
    endloop
  endfacet
  facet normal  0.000000e+000  0.000000e+000  1.000000e+000
    outer loop
      vertex  5.405813e+000  2.603302e+000  1.000000e+000
      vertex  1.236068e+000  3.804226e+000  1.000000e+000
      vertex  3.236068e+000  2.351141e+000  1.000000e+000
    endloop
  endfacet
  facet normal  -0.000000e+000  0.000000e+000  1.000000e+000
    outer loop
      vertex  5.405813e+000  2.603302e+000  1.000000e+000
      vertex  3.236068e+000  2.351141e+000  1.000000e+000
      vertex  6.000000e+000  7.347638e-016  1.000000e+000
    endloop
  endfacet
  facet normal  0.000000e+000  0.000000e+000  1.000000e+000
    outer loop
      vertex  6.000000e+000  7.347638e-016  1.000000e+000
      vertex  3.236068e+000  2.351141e+000  1.000000e+000
      vertex  4.000000e+000  4.898425e-016  1.000000e+000
    endloop
  endfacet
  facet normal  -0.000000e+000  0.000000e+000  1.000000e+000
    outer loop
      vertex  6.000000e+000  7.347638e-016  1.000000e+000
      vertex  4.000000e+000  4.898425e-016  1.000000e+000
      vertex  5.405813e+000 -2.603302e+000  1.000000e+000
    endloop
  endfacet
  facet normal  0.000000e+000  0.000000e+000  1.000000e+000
    outer loop
      vertex  5.405813e+000 -2.603302e+000  1.000000e+000
      vertex  4.000000e+000  4.898425e-016  1.000000e+000
      vertex  3.236068e+000 -2.351141e+000  1.000000e+000
    endloop
  endfacet
  facet normal  0.000000e+000  0.000000e+000  1.000000e+000
    outer loop
      vertex  5.405813e+000 -2.603302e+000  1.000000e+000
      vertex  3.236068e+000 -2.351141e+000  1.000000e+000
      vertex  3.740939e+000 -4.690989e+000  1.000000e+000
    endloop
  endfacet
  facet normal  0.000000e+000  0.000000e+000  1.000000e+000
    outer loop
      vertex  3.740939e+000 -4.690989e+000  1.000000e+000
      vertex  3.236068e+000 -2.351141e+000  1.000000e+000
      vertex  1.236068e+000 -3.804226e+000  1.000000e+000
    endloop
  endfacet
  facet normal  9.749279e-001  2.225209e-001  -0.000000e+000
    outer loop
      vertex  6.000000e+000  7.347638e-016  1.000000e+000
      vertex  6.000000e+000  7.347638e-016 -1.000000e+000
      vertex  5.405813e+000  2.603302e+000  1.000000e+000
    endloop
  endfacet
  facet normal  9.749279e-001  2.225209e-001  0.000000e+000
    outer loop
      vertex  5.405813e+000  2.603302e+000  1.000000e+000
      vertex  6.000000e+000  7.347638e-016 -1.000000e+000
      vertex  5.405813e+000  2.603302e+000 -1.000000e+000
    endloop
  endfacet
  facet normal  7.818315e-001  6.234898e-001  -0.000000e+000
    outer loop
      vertex  5.405813e+000  2.603302e+000  1.000000e+000
      vertex  5.405813e+000  2.603302e+000 -1.000000e+000
      vertex  3.740939e+000  4.690989e+000  1.000000e+000
    endloop
  endfacet
  facet normal  7.818315e-001  6.234898e-001  0.000000e+000
    outer loop
      vertex  3.740939e+000  4.690989e+000  1.000000e+000
      vertex  5.405813e+000  2.603302e+000 -1.000000e+000
      vertex  3.740939e+000  4.690989e+000 -1.000000e+000
    endloop
  endfacet
  facet normal  4.338837e-001  9.009689e-001  -0.000000e+000
    outer loop
      vertex  3.740939e+000  4.690989e+000  1.000000e+000
      vertex  3.740939e+000  4.690989e+000 -1.000000e+000
      vertex  1.335126e+000  5.849567e+000  1.000000e+000
    endloop
  endfacet
  facet normal  4.338837e-001  9.009689e-001  0.000000e+000
    outer loop
      vertex  1.335126e+000  5.849567e+000  1.000000e+000
      vertex  3.740939e+000  4.690989e+000 -1.000000e+000
      vertex  1.335126e+000  5.849567e+000 -1.000000e+000
    endloop
  endfacet
  facet normal  0.000000e+000  1.000000e+000  -0.000000e+000
    outer loop
      vertex  1.335126e+000  5.849567e+000  1.000000e+000
      vertex  1.335126e+000  5.849567e+000 -1.000000e+000
      vertex -1.335126e+000  5.849567e+000  1.000000e+000
    endloop
  endfacet
  facet normal  0.000000e+000  1.000000e+000  0.000000e+000
    outer loop
      vertex -1.335126e+000  5.849567e+000  1.000000e+000
      vertex  1.335126e+000  5.849567e+000 -1.000000e+000
      vertex -1.335126e+000  5.849567e+000 -1.000000e+000
    endloop
  endfacet
  facet normal -4.338837e-001  9.009689e-001  0.000000e+000
    outer loop
      vertex -1.335126e+000  5.849567e+000  1.000000e+000
      vertex -1.335126e+000  5.849567e+000 -1.000000e+000
      vertex -3.740939e+000  4.690989e+000  1.000000e+000
    endloop
  endfacet
  facet normal -4.338837e-001  9.009689e-001  0.000000e+000
    outer loop
      vertex -3.740939e+000  4.690989e+000  1.000000e+000
      vertex -1.335126e+000  5.849567e+000 -1.000000e+000
      vertex -3.740939e+000  4.690989e+000 -1.000000e+000
    endloop
  endfacet
  facet normal -7.818315e-001  6.234898e-001  0.000000e+000
    outer loop
      vertex -3.740939e+000  4.690989e+000  1.000000e+000
      vertex -3.740939e+000  4.690989e+000 -1.000000e+000
      vertex -5.405813e+000  2.603302e+000  1.000000e+000
    endloop
  endfacet
  facet normal -7.818315e-001  6.234898e-001  0.000000e+000
    outer loop
      vertex -5.405813e+000  2.603302e+000  1.000000e+000
      vertex -3.740939e+000  4.690989e+000 -1.000000e+000
      vertex -5.405813e+000  2.603302e+000 -1.000000e+000
    endloop
  endfacet
  facet normal -9.749279e-001  2.225209e-001  0.000000e+000
    outer loop
      vertex -5.405813e+000  2.603302e+000  1.000000e+000
      vertex -5.405813e+000  2.603302e+000 -1.000000e+000
      vertex -6.000000e+000  0.000000e+000  1.000000e+000
    endloop
  endfacet
  facet normal -9.749279e-001  2.225209e-001  0.000000e+000
    outer loop
      vertex -6.000000e+000  0.000000e+000  1.000000e+000
      vertex -5.405813e+000  2.603302e+000 -1.000000e+000
      vertex -6.000000e+000  0.000000e+000 -1.000000e+000
    endloop
  endfacet
  facet normal  5.877853e-001  8.090170e-001  -0.000000e+000
    outer loop
      vertex -1.236068e+000 -3.804226e+000  1.000000e+000
      vertex -3.236068e+000 -2.351141e+000 -1.000000e+000
      vertex -3.236068e+000 -2.351141e+000  1.000000e+000
    endloop
  endfacet
  facet normal  9.510565e-001  3.090170e-001  0.000000e+000
    outer loop
      vertex -3.236068e+000 -2.351141e+000  1.000000e+000
      vertex -3.236068e+000 -2.351141e+000 -1.000000e+000
      vertex -4.000000e+000  0.000000e+000 -1.000000e+000
    endloop
  endfacet
  facet normal  9.510565e-001  3.090170e-001  1.513697e-016
    outer loop
      vertex -3.236068e+000 -2.351141e+000  1.000000e+000
      vertex -4.000000e+000  0.000000e+000 -1.000000e+000
      vertex -4.000000e+000 -9.796851e-016  1.000000e+000
    endloop
  endfacet
  facet normal  5.877853e-001  8.090170e-001  0.000000e+000
    outer loop
      vertex -3.236068e+000 -2.351141e+000 -1.000000e+000
      vertex -1.236068e+000 -3.804226e+000  1.000000e+000
      vertex -1.236068e+000 -3.804226e+000 -1.000000e+000
    endloop
  endfacet
  facet normal  0.000000e+000  1.000000e+000  0.000000e+000
    outer loop
      vertex -1.236068e+000 -3.804226e+000 -1.000000e+000
      vertex -1.236068e+000 -3.804226e+000  1.000000e+000
      vertex  1.236068e+000 -3.804226e+000  1.000000e+000
    endloop
  endfacet
  facet normal  0.000000e+000  1.000000e+000  0.000000e+000
    outer loop
      vertex -1.236068e+000 -3.804226e+000 -1.000000e+000
      vertex  1.236068e+000 -3.804226e+000  1.000000e+000
      vertex  1.236068e+000 -3.804226e+000 -1.000000e+000
    endloop
  endfacet
  facet normal -5.877853e-001  8.090170e-001  0.000000e+000
    outer loop
      vertex  1.236068e+000 -3.804226e+000 -1.000000e+000
      vertex  1.236068e+000 -3.804226e+000  1.000000e+000
      vertex  3.236068e+000 -2.351141e+000  1.000000e+000
    endloop
  endfacet
  facet normal -5.877853e-001  8.090170e-001  0.000000e+000
    outer loop
      vertex  1.236068e+000 -3.804226e+000 -1.000000e+000
      vertex  3.236068e+000 -2.351141e+000  1.000000e+000
      vertex  3.236068e+000 -2.351141e+000 -1.000000e+000
    endloop
  endfacet
  facet normal -9.510565e-001  3.090170e-001  0.000000e+000
    outer loop
      vertex  3.236068e+000 -2.351141e+000 -1.000000e+000
      vertex  3.236068e+000 -2.351141e+000  1.000000e+000
      vertex  4.000000e+000  4.898425e-016  1.000000e+000
    endloop
  endfacet
  facet normal -9.510565e-001  3.090170e-001  0.000000e+000
    outer loop
      vertex  3.236068e+000 -2.351141e+000 -1.000000e+000
      vertex  4.000000e+000  4.898425e-016  1.000000e+000
      vertex  4.000000e+000  4.898425e-016 -1.000000e+000
    endloop
  endfacet
endsolid CATIA STL
