solid STL generated by MeshLab
  facet normal  0.000000e+00  1.000000e+00  0.000000e+00
    outer loop
      vertex   1.142104e+01  5.000000e+01  8.675143e+01
      vertex  -1.142104e+01  5.000000e+01  8.675143e+01
      vertex  -2.478656e-14  5.000000e+01  8.750000e+01
    endloop
  endfacet
  facet normal -0.000000e+00  1.000000e+00  0.000000e+00
    outer loop
      vertex  -1.142104e+01  5.000000e+01  8.675143e+01
      vertex   1.142104e+01  5.000000e+01  8.675143e+01
      vertex  -2.264667e+01  5.000000e+01  8.451851e+01
    endloop
  endfacet
  facet normal  0.000000e+00  1.000000e+00  0.000000e+00
    outer loop
      vertex  -2.264667e+01  5.000000e+01  8.451851e+01
      vertex   1.142104e+01  5.000000e+01  8.675143e+01
      vertex   2.264667e+01  5.000000e+01  8.451851e+01
    endloop
  endfacet
  facet normal -0.000000e+00  1.000000e+00  0.000000e+00
    outer loop
      vertex  -2.264667e+01  5.000000e+01  8.451851e+01
      vertex   2.264667e+01  5.000000e+01  8.451851e+01
      vertex  -3.348480e+01  5.000000e+01  8.083946e+01
    endloop
  endfacet
  facet normal  0.000000e+00  1.000000e+00  0.000000e+00
    outer loop
      vertex  -3.348480e+01  5.000000e+01  8.083946e+01
      vertex   2.264667e+01  5.000000e+01  8.451851e+01
      vertex   3.348480e+01  5.000000e+01  8.083946e+01
    endloop
  endfacet
  facet normal -0.000000e+00  1.000000e+00  0.000000e+00
    outer loop
      vertex  -3.348480e+01  5.000000e+01  8.083946e+01
      vertex   3.348480e+01  5.000000e+01  8.083946e+01
      vertex  -4.375000e+01  5.000000e+01  7.577722e+01
    endloop
  endfacet
  facet normal  0.000000e+00  1.000000e+00  0.000000e+00
    outer loop
      vertex  -4.375000e+01  5.000000e+01  7.577722e+01
      vertex   3.348480e+01  5.000000e+01  8.083946e+01
      vertex   4.375000e+01  5.000000e+01  7.577722e+01
    endloop
  endfacet
  facet normal -0.000000e+00  1.000000e+00  0.000000e+00
    outer loop
      vertex  -4.375000e+01  5.000000e+01  7.577722e+01
      vertex   4.375000e+01  5.000000e+01  7.577722e+01
      vertex  -5.326662e+01  5.000000e+01  6.941842e+01
    endloop
  endfacet
  facet normal  0.000000e+00  1.000000e+00  0.000000e+00
    outer loop
      vertex  -5.326662e+01  5.000000e+01  6.941842e+01
      vertex   4.375000e+01  5.000000e+01  7.577722e+01
      vertex   5.326662e+01  5.000000e+01  6.941842e+01
    endloop
  endfacet
  facet normal -0.000000e+00  1.000000e+00  0.000000e+00
    outer loop
      vertex  -5.326662e+01  5.000000e+01  6.941842e+01
      vertex   5.326662e+01  5.000000e+01  6.941842e+01
      vertex  -6.187185e+01  5.000000e+01  6.187185e+01
    endloop
  endfacet
  facet normal  0.000000e+00  1.000000e+00  0.000000e+00
    outer loop
      vertex  -6.187185e+01  5.000000e+01  6.187185e+01
      vertex   5.326662e+01  5.000000e+01  6.941842e+01
      vertex   6.187185e+01  5.000000e+01  6.187185e+01
    endloop
  endfacet
  facet normal -0.000000e+00  1.000000e+00  0.000000e+00
    outer loop
      vertex  -6.187185e+01  5.000000e+01  6.187185e+01
      vertex   6.187185e+01  5.000000e+01  6.187185e+01
      vertex  -6.941842e+01  5.000000e+01  5.326662e+01
    endloop
  endfacet
  facet normal  0.000000e+00  1.000000e+00  0.000000e+00
    outer loop
      vertex  -6.941842e+01  5.000000e+01  5.326662e+01
      vertex   6.187185e+01  5.000000e+01  6.187185e+01
      vertex   6.941842e+01  5.000000e+01  5.326662e+01
    endloop
  endfacet
  facet normal -0.000000e+00  1.000000e+00  0.000000e+00
    outer loop
      vertex  -6.941842e+01  5.000000e+01  5.326662e+01
      vertex   6.941842e+01  5.000000e+01  5.326662e+01
      vertex  -7.577722e+01  5.000000e+01  4.375000e+01
    endloop
  endfacet
  facet normal  0.000000e+00  1.000000e+00  0.000000e+00
    outer loop
      vertex  -7.577722e+01  5.000000e+01  4.375000e+01
      vertex   6.941842e+01  5.000000e+01  5.326662e+01
      vertex   7.577722e+01  5.000000e+01  4.375000e+01
    endloop
  endfacet
  facet normal -0.000000e+00  1.000000e+00  0.000000e+00
    outer loop
      vertex  -7.577722e+01  5.000000e+01  4.375000e+01
      vertex   7.577722e+01  5.000000e+01  4.375000e+01
      vertex  -8.083946e+01  5.000000e+01  3.348480e+01
    endloop
  endfacet
  facet normal  0.000000e+00  1.000000e+00  0.000000e+00
    outer loop
      vertex  -8.083946e+01  5.000000e+01  3.348480e+01
      vertex   7.577722e+01  5.000000e+01  4.375000e+01
      vertex   8.083946e+01  5.000000e+01  3.348480e+01
    endloop
  endfacet
  facet normal -0.000000e+00  1.000000e+00  0.000000e+00
    outer loop
      vertex  -8.083946e+01  5.000000e+01  3.348480e+01
      vertex   8.083946e+01  5.000000e+01  3.348480e+01
      vertex  -8.451851e+01  5.000000e+01  2.264667e+01
    endloop
  endfacet
  facet normal  0.000000e+00  1.000000e+00  0.000000e+00
    outer loop
      vertex  -8.451851e+01  5.000000e+01  2.264667e+01
      vertex   8.083946e+01  5.000000e+01  3.348480e+01
      vertex   8.451851e+01  5.000000e+01  2.264667e+01
    endloop
  endfacet
  facet normal -0.000000e+00  1.000000e+00  0.000000e+00
    outer loop
      vertex  -8.451851e+01  5.000000e+01  2.264667e+01
      vertex   8.451851e+01  5.000000e+01  2.264667e+01
      vertex  -8.675143e+01  5.000000e+01  1.142104e+01
    endloop
  endfacet
  facet normal  0.000000e+00  1.000000e+00  0.000000e+00
    outer loop
      vertex  -8.675143e+01  5.000000e+01  1.142104e+01
      vertex   8.451851e+01  5.000000e+01  2.264667e+01
      vertex   8.675143e+01  5.000000e+01  1.142104e+01
    endloop
  endfacet
  facet normal -0.000000e+00  1.000000e+00  0.000000e+00
    outer loop
      vertex  -8.675143e+01  5.000000e+01  1.142104e+01
      vertex   8.675143e+01  5.000000e+01  1.142104e+01
      vertex  -8.750000e+01  5.000000e+01  0.000000e+00
    endloop
  endfacet
  facet normal  0.000000e+00  1.000000e+00  0.000000e+00
    outer loop
      vertex  -8.750000e+01  5.000000e+01  0.000000e+00
      vertex   8.675143e+01  5.000000e+01  1.142104e+01
      vertex   8.750000e+01  5.000000e+01  4.957311e-14
    endloop
  endfacet
  facet normal -0.000000e+00  1.000000e+00  0.000000e+00
    outer loop
      vertex  -8.750000e+01  5.000000e+01  0.000000e+00
      vertex   8.750000e+01  5.000000e+01  4.957311e-14
      vertex  -8.675143e+01  5.000000e+01 -1.142104e+01
    endloop
  endfacet
  facet normal  0.000000e+00  1.000000e+00  0.000000e+00
    outer loop
      vertex  -8.675143e+01  5.000000e+01 -1.142104e+01
      vertex   8.750000e+01  5.000000e+01  4.957311e-14
      vertex   8.675143e+01  5.000000e+01 -1.142104e+01
    endloop
  endfacet
  facet normal -0.000000e+00  1.000000e+00  0.000000e+00
    outer loop
      vertex  -8.675143e+01  5.000000e+01 -1.142104e+01
      vertex   8.675143e+01  5.000000e+01 -1.142104e+01
      vertex  -8.451851e+01  5.000000e+01 -2.264667e+01
    endloop
  endfacet
  facet normal  0.000000e+00  1.000000e+00  0.000000e+00
    outer loop
      vertex  -8.451851e+01  5.000000e+01 -2.264667e+01
      vertex   8.675143e+01  5.000000e+01 -1.142104e+01
      vertex   8.451851e+01  5.000000e+01 -2.264667e+01
    endloop
  endfacet
  facet normal -0.000000e+00  1.000000e+00  0.000000e+00
    outer loop
      vertex  -8.451851e+01  5.000000e+01 -2.264667e+01
      vertex   8.451851e+01  5.000000e+01 -2.264667e+01
      vertex  -8.083946e+01  5.000000e+01 -3.348480e+01
    endloop
  endfacet
  facet normal  0.000000e+00  1.000000e+00  0.000000e+00
    outer loop
      vertex  -8.083946e+01  5.000000e+01 -3.348480e+01
      vertex   8.451851e+01  5.000000e+01 -2.264667e+01
      vertex   8.083946e+01  5.000000e+01 -3.348480e+01
    endloop
  endfacet
  facet normal -0.000000e+00  1.000000e+00  0.000000e+00
    outer loop
      vertex  -8.083946e+01  5.000000e+01 -3.348480e+01
      vertex   8.083946e+01  5.000000e+01 -3.348480e+01
      vertex  -7.577722e+01  5.000000e+01 -4.375000e+01
    endloop
  endfacet
  facet normal  0.000000e+00  1.000000e+00  0.000000e+00
    outer loop
      vertex  -7.577722e+01  5.000000e+01 -4.375000e+01
      vertex   8.083946e+01  5.000000e+01 -3.348480e+01
      vertex   7.577722e+01  5.000000e+01 -4.375000e+01
    endloop
  endfacet
  facet normal -0.000000e+00  1.000000e+00  0.000000e+00
    outer loop
      vertex  -7.577722e+01  5.000000e+01 -4.375000e+01
      vertex   7.577722e+01  5.000000e+01 -4.375000e+01
      vertex  -6.941842e+01  5.000000e+01 -5.326662e+01
    endloop
  endfacet
  facet normal  0.000000e+00  1.000000e+00  0.000000e+00
    outer loop
      vertex  -6.941842e+01  5.000000e+01 -5.326662e+01
      vertex   7.577722e+01  5.000000e+01 -4.375000e+01
      vertex   6.941842e+01  5.000000e+01 -5.326662e+01
    endloop
  endfacet
  facet normal -0.000000e+00  1.000000e+00  0.000000e+00
    outer loop
      vertex  -6.941842e+01  5.000000e+01 -5.326662e+01
      vertex   6.941842e+01  5.000000e+01 -5.326662e+01
      vertex  -6.187185e+01  5.000000e+01 -6.187185e+01
    endloop
  endfacet
  facet normal  0.000000e+00  1.000000e+00  0.000000e+00
    outer loop
      vertex  -6.187185e+01  5.000000e+01 -6.187185e+01
      vertex   6.941842e+01  5.000000e+01 -5.326662e+01
      vertex   6.187185e+01  5.000000e+01 -6.187185e+01
    endloop
  endfacet
  facet normal -0.000000e+00  1.000000e+00  0.000000e+00
    outer loop
      vertex  -6.187185e+01  5.000000e+01 -6.187185e+01
      vertex   6.187185e+01  5.000000e+01 -6.187185e+01
      vertex  -5.326662e+01  5.000000e+01 -6.941842e+01
    endloop
  endfacet
  facet normal  0.000000e+00  1.000000e+00  0.000000e+00
    outer loop
      vertex  -5.326662e+01  5.000000e+01 -6.941842e+01
      vertex   6.187185e+01  5.000000e+01 -6.187185e+01
      vertex   5.326662e+01  5.000000e+01 -6.941842e+01
    endloop
  endfacet
  facet normal -0.000000e+00  1.000000e+00  0.000000e+00
    outer loop
      vertex  -5.326662e+01  5.000000e+01 -6.941842e+01
      vertex   5.326662e+01  5.000000e+01 -6.941842e+01
      vertex  -4.375000e+01  5.000000e+01 -7.577722e+01
    endloop
  endfacet
  facet normal  0.000000e+00  1.000000e+00  0.000000e+00
    outer loop
      vertex  -4.375000e+01  5.000000e+01 -7.577722e+01
      vertex   5.326662e+01  5.000000e+01 -6.941842e+01
      vertex   4.375000e+01  5.000000e+01 -7.577722e+01
    endloop
  endfacet
  facet normal -0.000000e+00  1.000000e+00  0.000000e+00
    outer loop
      vertex  -4.375000e+01  5.000000e+01 -7.577722e+01
      vertex   4.375000e+01  5.000000e+01 -7.577722e+01
      vertex  -3.348480e+01  5.000000e+01 -8.083946e+01
    endloop
  endfacet
  facet normal  0.000000e+00  1.000000e+00  0.000000e+00
    outer loop
      vertex  -3.348480e+01  5.000000e+01 -8.083946e+01
      vertex   4.375000e+01  5.000000e+01 -7.577722e+01
      vertex   3.348480e+01  5.000000e+01 -8.083946e+01
    endloop
  endfacet
  facet normal -0.000000e+00  1.000000e+00  0.000000e+00
    outer loop
      vertex  -3.348480e+01  5.000000e+01 -8.083946e+01
      vertex   3.348480e+01  5.000000e+01 -8.083946e+01
      vertex  -2.264667e+01  5.000000e+01 -8.451851e+01
    endloop
  endfacet
  facet normal  0.000000e+00  1.000000e+00  0.000000e+00
    outer loop
      vertex  -2.264667e+01  5.000000e+01 -8.451851e+01
      vertex   3.348480e+01  5.000000e+01 -8.083946e+01
      vertex   2.264667e+01  5.000000e+01 -8.451851e+01
    endloop
  endfacet
  facet normal -0.000000e+00  1.000000e+00  0.000000e+00
    outer loop
      vertex  -2.264667e+01  5.000000e+01 -8.451851e+01
      vertex   2.264667e+01  5.000000e+01 -8.451851e+01
      vertex  -1.142104e+01  5.000000e+01 -8.675143e+01
    endloop
  endfacet
  facet normal  0.000000e+00  1.000000e+00  0.000000e+00
    outer loop
      vertex  -1.142104e+01  5.000000e+01 -8.675143e+01
      vertex   2.264667e+01  5.000000e+01 -8.451851e+01
      vertex   1.142104e+01  5.000000e+01 -8.675143e+01
    endloop
  endfacet
  facet normal -0.000000e+00  1.000000e+00  0.000000e+00
    outer loop
      vertex  -1.142104e+01  5.000000e+01 -8.675143e+01
      vertex   1.142104e+01  5.000000e+01 -8.675143e+01
      vertex   9.378857e-14  5.000000e+01 -8.750000e+01
    endloop
  endfacet
  facet normal  0.000000e+00 -1.000000e+00 -0.000000e+00
    outer loop
      vertex  -2.478656e-14  0.000000e+00  8.750000e+01
      vertex  -1.142104e+01  0.000000e+00  8.675143e+01
      vertex   1.142104e+01  0.000000e+00  8.675143e+01
    endloop
  endfacet
  facet normal  0.000000e+00 -1.000000e+00  0.000000e+00
    outer loop
      vertex   9.378857e-14  0.000000e+00 -8.750000e+01
      vertex   1.142104e+01  0.000000e+00 -8.675143e+01
      vertex  -1.142104e+01  0.000000e+00 -8.675143e+01
    endloop
  endfacet
  facet normal  0.000000e+00 -1.000000e+00  0.000000e+00
    outer loop
      vertex  -1.142104e+01  0.000000e+00 -8.675143e+01
      vertex   1.142104e+01  0.000000e+00 -8.675143e+01
      vertex   2.264667e+01  0.000000e+00 -8.451851e+01
    endloop
  endfacet
  facet normal  0.000000e+00 -1.000000e+00  0.000000e+00
    outer loop
      vertex  -1.142104e+01  0.000000e+00 -8.675143e+01
      vertex   2.264667e+01  0.000000e+00 -8.451851e+01
      vertex  -2.264667e+01  0.000000e+00 -8.451851e+01
    endloop
  endfacet
  facet normal  0.000000e+00 -1.000000e+00  0.000000e+00
    outer loop
      vertex  -2.264667e+01  0.000000e+00 -8.451851e+01
      vertex   2.264667e+01  0.000000e+00 -8.451851e+01
      vertex   3.348480e+01  0.000000e+00 -8.083946e+01
    endloop
  endfacet
  facet normal  0.000000e+00 -1.000000e+00  0.000000e+00
    outer loop
      vertex  -2.264667e+01  0.000000e+00 -8.451851e+01
      vertex   3.348480e+01  0.000000e+00 -8.083946e+01
      vertex  -3.348480e+01  0.000000e+00 -8.083946e+01
    endloop
  endfacet
  facet normal  0.000000e+00 -1.000000e+00  0.000000e+00
    outer loop
      vertex  -3.348480e+01  0.000000e+00 -8.083946e+01
      vertex   3.348480e+01  0.000000e+00 -8.083946e+01
      vertex   4.375000e+01  0.000000e+00 -7.577722e+01
    endloop
  endfacet
  facet normal  0.000000e+00 -1.000000e+00  0.000000e+00
    outer loop
      vertex  -3.348480e+01  0.000000e+00 -8.083946e+01
      vertex   4.375000e+01  0.000000e+00 -7.577722e+01
      vertex  -4.375000e+01  0.000000e+00 -7.577722e+01
    endloop
  endfacet
  facet normal  0.000000e+00 -1.000000e+00  0.000000e+00
    outer loop
      vertex  -4.375000e+01  0.000000e+00 -7.577722e+01
      vertex   4.375000e+01  0.000000e+00 -7.577722e+01
      vertex   5.326662e+01  0.000000e+00 -6.941842e+01
    endloop
  endfacet
  facet normal  0.000000e+00 -1.000000e+00  0.000000e+00
    outer loop
      vertex  -4.375000e+01  0.000000e+00 -7.577722e+01
      vertex   5.326662e+01  0.000000e+00 -6.941842e+01
      vertex  -5.326662e+01  0.000000e+00 -6.941842e+01
    endloop
  endfacet
  facet normal  0.000000e+00 -1.000000e+00  0.000000e+00
    outer loop
      vertex  -5.326662e+01  0.000000e+00 -6.941842e+01
      vertex   5.326662e+01  0.000000e+00 -6.941842e+01
      vertex   6.187185e+01  0.000000e+00 -6.187185e+01
    endloop
  endfacet
  facet normal  0.000000e+00 -1.000000e+00  0.000000e+00
    outer loop
      vertex  -5.326662e+01  0.000000e+00 -6.941842e+01
      vertex   6.187185e+01  0.000000e+00 -6.187185e+01
      vertex  -6.187185e+01  0.000000e+00 -6.187185e+01
    endloop
  endfacet
  facet normal  0.000000e+00 -1.000000e+00  0.000000e+00
    outer loop
      vertex  -6.187185e+01  0.000000e+00 -6.187185e+01
      vertex   6.187185e+01  0.000000e+00 -6.187185e+01
      vertex   6.941842e+01  0.000000e+00 -5.326662e+01
    endloop
  endfacet
  facet normal  0.000000e+00 -1.000000e+00  0.000000e+00
    outer loop
      vertex  -6.187185e+01  0.000000e+00 -6.187185e+01
      vertex   6.941842e+01  0.000000e+00 -5.326662e+01
      vertex  -6.941842e+01  0.000000e+00 -5.326662e+01
    endloop
  endfacet
  facet normal  0.000000e+00 -1.000000e+00  0.000000e+00
    outer loop
      vertex  -6.941842e+01  0.000000e+00 -5.326662e+01
      vertex   6.941842e+01  0.000000e+00 -5.326662e+01
      vertex   7.577722e+01  0.000000e+00 -4.375000e+01
    endloop
  endfacet
  facet normal  0.000000e+00 -1.000000e+00  0.000000e+00
    outer loop
      vertex  -6.941842e+01  0.000000e+00 -5.326662e+01
      vertex   7.577722e+01  0.000000e+00 -4.375000e+01
      vertex  -7.577722e+01  0.000000e+00 -4.375000e+01
    endloop
  endfacet
  facet normal  0.000000e+00 -1.000000e+00  0.000000e+00
    outer loop
      vertex  -7.577722e+01  0.000000e+00 -4.375000e+01
      vertex   7.577722e+01  0.000000e+00 -4.375000e+01
      vertex   8.083946e+01  0.000000e+00 -3.348480e+01
    endloop
  endfacet
  facet normal  0.000000e+00 -1.000000e+00  0.000000e+00
    outer loop
      vertex  -7.577722e+01  0.000000e+00 -4.375000e+01
      vertex   8.083946e+01  0.000000e+00 -3.348480e+01
      vertex  -8.083946e+01  0.000000e+00 -3.348480e+01
    endloop
  endfacet
  facet normal  0.000000e+00 -1.000000e+00  0.000000e+00
    outer loop
      vertex  -8.083946e+01  0.000000e+00 -3.348480e+01
      vertex   8.083946e+01  0.000000e+00 -3.348480e+01
      vertex   8.451851e+01  0.000000e+00 -2.264667e+01
    endloop
  endfacet
  facet normal  0.000000e+00 -1.000000e+00  0.000000e+00
    outer loop
      vertex  -8.083946e+01  0.000000e+00 -3.348480e+01
      vertex   8.451851e+01  0.000000e+00 -2.264667e+01
      vertex  -8.451851e+01  0.000000e+00 -2.264667e+01
    endloop
  endfacet
  facet normal  0.000000e+00 -1.000000e+00  0.000000e+00
    outer loop
      vertex  -8.451851e+01  0.000000e+00 -2.264667e+01
      vertex   8.451851e+01  0.000000e+00 -2.264667e+01
      vertex   8.675143e+01  0.000000e+00 -1.142104e+01
    endloop
  endfacet
  facet normal  0.000000e+00 -1.000000e+00  0.000000e+00
    outer loop
      vertex  -8.451851e+01  0.000000e+00 -2.264667e+01
      vertex   8.675143e+01  0.000000e+00 -1.142104e+01
      vertex  -8.675143e+01  0.000000e+00 -1.142104e+01
    endloop
  endfacet
  facet normal  0.000000e+00 -1.000000e+00  0.000000e+00
    outer loop
      vertex  -8.675143e+01  0.000000e+00 -1.142104e+01
      vertex   8.675143e+01  0.000000e+00 -1.142104e+01
      vertex   8.750000e+01  0.000000e+00  4.957311e-14
    endloop
  endfacet
  facet normal  0.000000e+00 -1.000000e+00  0.000000e+00
    outer loop
      vertex  -8.675143e+01  0.000000e+00 -1.142104e+01
      vertex   8.750000e+01  0.000000e+00  4.957311e-14
      vertex  -8.750000e+01  0.000000e+00  0.000000e+00
    endloop
  endfacet
  facet normal  0.000000e+00 -1.000000e+00  0.000000e+00
    outer loop
      vertex  -8.750000e+01  0.000000e+00  0.000000e+00
      vertex   8.750000e+01  0.000000e+00  4.957311e-14
      vertex   8.675143e+01  0.000000e+00  1.142104e+01
    endloop
  endfacet
  facet normal  0.000000e+00 -1.000000e+00  0.000000e+00
    outer loop
      vertex  -8.750000e+01  0.000000e+00  0.000000e+00
      vertex   8.675143e+01  0.000000e+00  1.142104e+01
      vertex  -8.675143e+01  0.000000e+00  1.142104e+01
    endloop
  endfacet
  facet normal  0.000000e+00 -1.000000e+00  0.000000e+00
    outer loop
      vertex  -8.675143e+01  0.000000e+00  1.142104e+01
      vertex   8.675143e+01  0.000000e+00  1.142104e+01
      vertex   8.451851e+01  0.000000e+00  2.264667e+01
    endloop
  endfacet
  facet normal  0.000000e+00 -1.000000e+00  0.000000e+00
    outer loop
      vertex  -8.675143e+01  0.000000e+00  1.142104e+01
      vertex   8.451851e+01  0.000000e+00  2.264667e+01
      vertex  -8.451851e+01  0.000000e+00  2.264667e+01
    endloop
  endfacet
  facet normal  0.000000e+00 -1.000000e+00  0.000000e+00
    outer loop
      vertex  -8.451851e+01  0.000000e+00  2.264667e+01
      vertex   8.451851e+01  0.000000e+00  2.264667e+01
      vertex   8.083946e+01  0.000000e+00  3.348480e+01
    endloop
  endfacet
  facet normal  0.000000e+00 -1.000000e+00  0.000000e+00
    outer loop
      vertex  -8.451851e+01  0.000000e+00  2.264667e+01
      vertex   8.083946e+01  0.000000e+00  3.348480e+01
      vertex  -8.083946e+01  0.000000e+00  3.348480e+01
    endloop
  endfacet
  facet normal  0.000000e+00 -1.000000e+00  0.000000e+00
    outer loop
      vertex  -8.083946e+01  0.000000e+00  3.348480e+01
      vertex   8.083946e+01  0.000000e+00  3.348480e+01
      vertex   7.577722e+01  0.000000e+00  4.375000e+01
    endloop
  endfacet
  facet normal  0.000000e+00 -1.000000e+00  0.000000e+00
    outer loop
      vertex  -8.083946e+01  0.000000e+00  3.348480e+01
      vertex   7.577722e+01  0.000000e+00  4.375000e+01
      vertex  -7.577722e+01  0.000000e+00  4.375000e+01
    endloop
  endfacet
  facet normal  0.000000e+00 -1.000000e+00  0.000000e+00
    outer loop
      vertex  -7.577722e+01  0.000000e+00  4.375000e+01
      vertex   7.577722e+01  0.000000e+00  4.375000e+01
      vertex   6.941842e+01  0.000000e+00  5.326662e+01
    endloop
  endfacet
  facet normal  0.000000e+00 -1.000000e+00  0.000000e+00
    outer loop
      vertex  -7.577722e+01  0.000000e+00  4.375000e+01
      vertex   6.941842e+01  0.000000e+00  5.326662e+01
      vertex  -6.941842e+01  0.000000e+00  5.326662e+01
    endloop
  endfacet
  facet normal  0.000000e+00 -1.000000e+00  0.000000e+00
    outer loop
      vertex  -6.941842e+01  0.000000e+00  5.326662e+01
      vertex   6.941842e+01  0.000000e+00  5.326662e+01
      vertex   6.187185e+01  0.000000e+00  6.187185e+01
    endloop
  endfacet
  facet normal  0.000000e+00 -1.000000e+00  0.000000e+00
    outer loop
      vertex  -6.941842e+01  0.000000e+00  5.326662e+01
      vertex   6.187185e+01  0.000000e+00  6.187185e+01
      vertex  -6.187185e+01  0.000000e+00  6.187185e+01
    endloop
  endfacet
  facet normal  0.000000e+00 -1.000000e+00  0.000000e+00
    outer loop
      vertex  -6.187185e+01  0.000000e+00  6.187185e+01
      vertex   6.187185e+01  0.000000e+00  6.187185e+01
      vertex   5.326662e+01  0.000000e+00  6.941842e+01
    endloop
  endfacet
  facet normal  0.000000e+00 -1.000000e+00  0.000000e+00
    outer loop
      vertex  -6.187185e+01  0.000000e+00  6.187185e+01
      vertex   5.326662e+01  0.000000e+00  6.941842e+01
      vertex  -5.326662e+01  0.000000e+00  6.941842e+01
    endloop
  endfacet
  facet normal  0.000000e+00 -1.000000e+00  0.000000e+00
    outer loop
      vertex  -5.326662e+01  0.000000e+00  6.941842e+01
      vertex   5.326662e+01  0.000000e+00  6.941842e+01
      vertex   4.375000e+01  0.000000e+00  7.577722e+01
    endloop
  endfacet
  facet normal  0.000000e+00 -1.000000e+00  0.000000e+00
    outer loop
      vertex  -5.326662e+01  0.000000e+00  6.941842e+01
      vertex   4.375000e+01  0.000000e+00  7.577722e+01
      vertex  -4.375000e+01  0.000000e+00  7.577722e+01
    endloop
  endfacet
  facet normal  0.000000e+00 -1.000000e+00  0.000000e+00
    outer loop
      vertex  -4.375000e+01  0.000000e+00  7.577722e+01
      vertex   4.375000e+01  0.000000e+00  7.577722e+01
      vertex   3.348480e+01  0.000000e+00  8.083946e+01
    endloop
  endfacet
  facet normal  0.000000e+00 -1.000000e+00  0.000000e+00
    outer loop
      vertex  -4.375000e+01  0.000000e+00  7.577722e+01
      vertex   3.348480e+01  0.000000e+00  8.083946e+01
      vertex  -3.348480e+01  0.000000e+00  8.083946e+01
    endloop
  endfacet
  facet normal  0.000000e+00 -1.000000e+00  0.000000e+00
    outer loop
      vertex  -3.348480e+01  0.000000e+00  8.083946e+01
      vertex   3.348480e+01  0.000000e+00  8.083946e+01
      vertex   2.264667e+01  0.000000e+00  8.451851e+01
    endloop
  endfacet
  facet normal  0.000000e+00 -1.000000e+00  0.000000e+00
    outer loop
      vertex  -3.348480e+01  0.000000e+00  8.083946e+01
      vertex   2.264667e+01  0.000000e+00  8.451851e+01
      vertex  -2.264667e+01  0.000000e+00  8.451851e+01
    endloop
  endfacet
  facet normal  0.000000e+00 -1.000000e+00  0.000000e+00
    outer loop
      vertex  -2.264667e+01  0.000000e+00  8.451851e+01
      vertex   2.264667e+01  0.000000e+00  8.451851e+01
      vertex   1.142104e+01  0.000000e+00  8.675143e+01
    endloop
  endfacet
  facet normal  0.000000e+00 -1.000000e+00  0.000000e+00
    outer loop
      vertex  -2.264667e+01  0.000000e+00  8.451851e+01
      vertex   1.142104e+01  0.000000e+00  8.675143e+01
      vertex  -1.142104e+01  0.000000e+00  8.675143e+01
    endloop
  endfacet
  facet normal -9.978589e-01  0.000000e+00 -6.540302e-02
    outer loop
      vertex  -8.750000e+01  0.000000e+00  0.000000e+00
      vertex  -8.750000e+01  5.000000e+01  0.000000e+00
      vertex  -8.675143e+01  0.000000e+00 -1.142104e+01
    endloop
  endfacet
  facet normal -9.978589e-01  0.000000e+00 -6.540302e-02
    outer loop
      vertex  -8.675143e+01  0.000000e+00 -1.142104e+01
      vertex  -8.750000e+01  5.000000e+01  0.000000e+00
      vertex  -8.675143e+01  5.000000e+01 -1.142104e+01
    endloop
  endfacet
  facet normal -9.807853e-01  0.000000e+00 -1.950904e-01
    outer loop
      vertex  -8.675143e+01  0.000000e+00 -1.142104e+01
      vertex  -8.675143e+01  5.000000e+01 -1.142104e+01
      vertex  -8.451851e+01  0.000000e+00 -2.264667e+01
    endloop
  endfacet
  facet normal -9.807853e-01  0.000000e+00 -1.950904e-01
    outer loop
      vertex  -8.451851e+01  0.000000e+00 -2.264667e+01
      vertex  -8.675143e+01  5.000000e+01 -1.142104e+01
      vertex  -8.451851e+01  5.000000e+01 -2.264667e+01
    endloop
  endfacet
  facet normal -9.469301e-01  0.000000e+00 -3.214393e-01
    outer loop
      vertex  -8.451851e+01  0.000000e+00 -2.264667e+01
      vertex  -8.451851e+01  5.000000e+01 -2.264667e+01
      vertex  -8.083946e+01  0.000000e+00 -3.348480e+01
    endloop
  endfacet
  facet normal -9.469301e-01  0.000000e+00 -3.214393e-01
    outer loop
      vertex  -8.083946e+01  0.000000e+00 -3.348480e+01
      vertex  -8.451851e+01  5.000000e+01 -2.264667e+01
      vertex  -8.083946e+01  5.000000e+01 -3.348480e+01
    endloop
  endfacet
  facet normal -8.968726e-01  0.000000e+00 -4.422890e-01
    outer loop
      vertex  -8.083946e+01  0.000000e+00 -3.348480e+01
      vertex  -8.083946e+01  5.000000e+01 -3.348480e+01
      vertex  -7.577722e+01  0.000000e+00 -4.375000e+01
    endloop
  endfacet
  facet normal -8.968726e-01  0.000000e+00 -4.422890e-01
    outer loop
      vertex  -7.577722e+01  0.000000e+00 -4.375000e+01
      vertex  -8.083946e+01  5.000000e+01 -3.348480e+01
      vertex  -7.577722e+01  5.000000e+01 -4.375000e+01
    endloop
  endfacet
  facet normal -8.314696e-01  0.000000e+00 -5.555702e-01
    outer loop
      vertex  -7.577722e+01  0.000000e+00 -4.375000e+01
      vertex  -7.577722e+01  5.000000e+01 -4.375000e+01
      vertex  -6.941842e+01  0.000000e+00 -5.326662e+01
    endloop
  endfacet
  facet normal -8.314696e-01  0.000000e+00 -5.555702e-01
    outer loop
      vertex  -6.941842e+01  0.000000e+00 -5.326662e+01
      vertex  -7.577722e+01  5.000000e+01 -4.375000e+01
      vertex  -6.941842e+01  5.000000e+01 -5.326662e+01
    endloop
  endfacet
  facet normal -7.518404e-01  0.000000e+00 -6.593451e-01
    outer loop
      vertex  -6.941842e+01  0.000000e+00 -5.326662e+01
      vertex  -6.941842e+01  5.000000e+01 -5.326662e+01
      vertex  -6.187185e+01  0.000000e+00 -6.187185e+01
    endloop
  endfacet
  facet normal -7.518404e-01  0.000000e+00 -6.593451e-01
    outer loop
      vertex  -6.187185e+01  0.000000e+00 -6.187185e+01
      vertex  -6.941842e+01  5.000000e+01 -5.326662e+01
      vertex  -6.187185e+01  5.000000e+01 -6.187185e+01
    endloop
  endfacet
  facet normal -6.593451e-01  0.000000e+00 -7.518404e-01
    outer loop
      vertex  -6.187185e+01  0.000000e+00 -6.187185e+01
      vertex  -6.187185e+01  5.000000e+01 -6.187185e+01
      vertex  -5.326662e+01  0.000000e+00 -6.941842e+01
    endloop
  endfacet
  facet normal -6.593451e-01  0.000000e+00 -7.518404e-01
    outer loop
      vertex  -5.326662e+01  0.000000e+00 -6.941842e+01
      vertex  -6.187185e+01  5.000000e+01 -6.187185e+01
      vertex  -5.326662e+01  5.000000e+01 -6.941842e+01
    endloop
  endfacet
  facet normal -5.555702e-01  0.000000e+00 -8.314696e-01
    outer loop
      vertex  -5.326662e+01  0.000000e+00 -6.941842e+01
      vertex  -5.326662e+01  5.000000e+01 -6.941842e+01
      vertex  -4.375000e+01  0.000000e+00 -7.577722e+01
    endloop
  endfacet
  facet normal -5.555702e-01  0.000000e+00 -8.314696e-01
    outer loop
      vertex  -4.375000e+01  0.000000e+00 -7.577722e+01
      vertex  -5.326662e+01  5.000000e+01 -6.941842e+01
      vertex  -4.375000e+01  5.000000e+01 -7.577722e+01
    endloop
  endfacet
  facet normal -4.422890e-01  0.000000e+00 -8.968726e-01
    outer loop
      vertex  -4.375000e+01  0.000000e+00 -7.577722e+01
      vertex  -4.375000e+01  5.000000e+01 -7.577722e+01
      vertex  -3.348480e+01  0.000000e+00 -8.083946e+01
    endloop
  endfacet
  facet normal -4.422890e-01  0.000000e+00 -8.968726e-01
    outer loop
      vertex  -3.348480e+01  0.000000e+00 -8.083946e+01
      vertex  -4.375000e+01  5.000000e+01 -7.577722e+01
      vertex  -3.348480e+01  5.000000e+01 -8.083946e+01
    endloop
  endfacet
  facet normal -3.214393e-01  0.000000e+00 -9.469301e-01
    outer loop
      vertex  -3.348480e+01  0.000000e+00 -8.083946e+01
      vertex  -3.348480e+01  5.000000e+01 -8.083946e+01
      vertex  -2.264667e+01  0.000000e+00 -8.451851e+01
    endloop
  endfacet
  facet normal -3.214393e-01  0.000000e+00 -9.469301e-01
    outer loop
      vertex  -2.264667e+01  0.000000e+00 -8.451851e+01
      vertex  -3.348480e+01  5.000000e+01 -8.083946e+01
      vertex  -2.264667e+01  5.000000e+01 -8.451851e+01
    endloop
  endfacet
  facet normal -1.950904e-01  0.000000e+00 -9.807853e-01
    outer loop
      vertex  -2.264667e+01  0.000000e+00 -8.451851e+01
      vertex  -2.264667e+01  5.000000e+01 -8.451851e+01
      vertex  -1.142104e+01  0.000000e+00 -8.675143e+01
    endloop
  endfacet
  facet normal -1.950904e-01  0.000000e+00 -9.807853e-01
    outer loop
      vertex  -1.142104e+01  0.000000e+00 -8.675143e+01
      vertex  -2.264667e+01  5.000000e+01 -8.451851e+01
      vertex  -1.142104e+01  5.000000e+01 -8.675143e+01
    endloop
  endfacet
  facet normal -6.540302e-02  0.000000e+00 -9.978589e-01
    outer loop
      vertex  -1.142104e+01  0.000000e+00 -8.675143e+01
      vertex  -1.142104e+01  5.000000e+01 -8.675143e+01
      vertex   9.378857e-14  0.000000e+00 -8.750000e+01
    endloop
  endfacet
  facet normal -6.540302e-02  0.000000e+00 -9.978589e-01
    outer loop
      vertex   9.378857e-14  0.000000e+00 -8.750000e+01
      vertex  -1.142104e+01  5.000000e+01 -8.675143e+01
      vertex   9.378857e-14  5.000000e+01 -8.750000e+01
    endloop
  endfacet
  facet normal  6.540302e-02  0.000000e+00 -9.978589e-01
    outer loop
      vertex   9.378857e-14  0.000000e+00 -8.750000e+01
      vertex   9.378857e-14  5.000000e+01 -8.750000e+01
      vertex   1.142104e+01  0.000000e+00 -8.675143e+01
    endloop
  endfacet
  facet normal  6.540302e-02  0.000000e+00 -9.978589e-01
    outer loop
      vertex   1.142104e+01  0.000000e+00 -8.675143e+01
      vertex   9.378857e-14  5.000000e+01 -8.750000e+01
      vertex   1.142104e+01  5.000000e+01 -8.675143e+01
    endloop
  endfacet
  facet normal  1.950904e-01  0.000000e+00 -9.807853e-01
    outer loop
      vertex   1.142104e+01  0.000000e+00 -8.675143e+01
      vertex   1.142104e+01  5.000000e+01 -8.675143e+01
      vertex   2.264667e+01  0.000000e+00 -8.451851e+01
    endloop
  endfacet
  facet normal  1.950904e-01  0.000000e+00 -9.807853e-01
    outer loop
      vertex   2.264667e+01  0.000000e+00 -8.451851e+01
      vertex   1.142104e+01  5.000000e+01 -8.675143e+01
      vertex   2.264667e+01  5.000000e+01 -8.451851e+01
    endloop
  endfacet
  facet normal  3.214393e-01  0.000000e+00 -9.469301e-01
    outer loop
      vertex   2.264667e+01  0.000000e+00 -8.451851e+01
      vertex   2.264667e+01  5.000000e+01 -8.451851e+01
      vertex   3.348480e+01  0.000000e+00 -8.083946e+01
    endloop
  endfacet
  facet normal  3.214393e-01  0.000000e+00 -9.469301e-01
    outer loop
      vertex   3.348480e+01  0.000000e+00 -8.083946e+01
      vertex   2.264667e+01  5.000000e+01 -8.451851e+01
      vertex   3.348480e+01  5.000000e+01 -8.083946e+01
    endloop
  endfacet
  facet normal  4.422890e-01  0.000000e+00 -8.968726e-01
    outer loop
      vertex   3.348480e+01  0.000000e+00 -8.083946e+01
      vertex   3.348480e+01  5.000000e+01 -8.083946e+01
      vertex   4.375000e+01  0.000000e+00 -7.577722e+01
    endloop
  endfacet
  facet normal  4.422890e-01  0.000000e+00 -8.968726e-01
    outer loop
      vertex   4.375000e+01  0.000000e+00 -7.577722e+01
      vertex   3.348480e+01  5.000000e+01 -8.083946e+01
      vertex   4.375000e+01  5.000000e+01 -7.577722e+01
    endloop
  endfacet
  facet normal  5.555702e-01  0.000000e+00 -8.314696e-01
    outer loop
      vertex   4.375000e+01  0.000000e+00 -7.577722e+01
      vertex   4.375000e+01  5.000000e+01 -7.577722e+01
      vertex   5.326662e+01  0.000000e+00 -6.941842e+01
    endloop
  endfacet
  facet normal  5.555702e-01  0.000000e+00 -8.314696e-01
    outer loop
      vertex   5.326662e+01  0.000000e+00 -6.941842e+01
      vertex   4.375000e+01  5.000000e+01 -7.577722e+01
      vertex   5.326662e+01  5.000000e+01 -6.941842e+01
    endloop
  endfacet
  facet normal  6.593451e-01  0.000000e+00 -7.518404e-01
    outer loop
      vertex   5.326662e+01  0.000000e+00 -6.941842e+01
      vertex   5.326662e+01  5.000000e+01 -6.941842e+01
      vertex   6.187185e+01  0.000000e+00 -6.187185e+01
    endloop
  endfacet
  facet normal  6.593451e-01  0.000000e+00 -7.518404e-01
    outer loop
      vertex   6.187185e+01  0.000000e+00 -6.187185e+01
      vertex   5.326662e+01  5.000000e+01 -6.941842e+01
      vertex   6.187185e+01  5.000000e+01 -6.187185e+01
    endloop
  endfacet
  facet normal  7.518404e-01  0.000000e+00 -6.593451e-01
    outer loop
      vertex   6.187185e+01  0.000000e+00 -6.187185e+01
      vertex   6.187185e+01  5.000000e+01 -6.187185e+01
      vertex   6.941842e+01  0.000000e+00 -5.326662e+01
    endloop
  endfacet
  facet normal  7.518404e-01  0.000000e+00 -6.593451e-01
    outer loop
      vertex   6.941842e+01  0.000000e+00 -5.326662e+01
      vertex   6.187185e+01  5.000000e+01 -6.187185e+01
      vertex   6.941842e+01  5.000000e+01 -5.326662e+01
    endloop
  endfacet
  facet normal  8.314696e-01  0.000000e+00 -5.555702e-01
    outer loop
      vertex   6.941842e+01  0.000000e+00 -5.326662e+01
      vertex   6.941842e+01  5.000000e+01 -5.326662e+01
      vertex   7.577722e+01  0.000000e+00 -4.375000e+01
    endloop
  endfacet
  facet normal  8.314696e-01  0.000000e+00 -5.555702e-01
    outer loop
      vertex   7.577722e+01  0.000000e+00 -4.375000e+01
      vertex   6.941842e+01  5.000000e+01 -5.326662e+01
      vertex   7.577722e+01  5.000000e+01 -4.375000e+01
    endloop
  endfacet
  facet normal  8.968726e-01  0.000000e+00 -4.422890e-01
    outer loop
      vertex   7.577722e+01  0.000000e+00 -4.375000e+01
      vertex   7.577722e+01  5.000000e+01 -4.375000e+01
      vertex   8.083946e+01  0.000000e+00 -3.348480e+01
    endloop
  endfacet
  facet normal  8.968726e-01  0.000000e+00 -4.422890e-01
    outer loop
      vertex   8.083946e+01  0.000000e+00 -3.348480e+01
      vertex   7.577722e+01  5.000000e+01 -4.375000e+01
      vertex   8.083946e+01  5.000000e+01 -3.348480e+01
    endloop
  endfacet
  facet normal  9.469301e-01  0.000000e+00 -3.214393e-01
    outer loop
      vertex   8.083946e+01  0.000000e+00 -3.348480e+01
      vertex   8.083946e+01  5.000000e+01 -3.348480e+01
      vertex   8.451851e+01  0.000000e+00 -2.264667e+01
    endloop
  endfacet
  facet normal  9.469301e-01  0.000000e+00 -3.214393e-01
    outer loop
      vertex   8.451851e+01  0.000000e+00 -2.264667e+01
      vertex   8.083946e+01  5.000000e+01 -3.348480e+01
      vertex   8.451851e+01  5.000000e+01 -2.264667e+01
    endloop
  endfacet
  facet normal  9.807853e-01  0.000000e+00 -1.950904e-01
    outer loop
      vertex   8.451851e+01  0.000000e+00 -2.264667e+01
      vertex   8.451851e+01  5.000000e+01 -2.264667e+01
      vertex   8.675143e+01  0.000000e+00 -1.142104e+01
    endloop
  endfacet
  facet normal  9.807853e-01  0.000000e+00 -1.950904e-01
    outer loop
      vertex   8.675143e+01  0.000000e+00 -1.142104e+01
      vertex   8.451851e+01  5.000000e+01 -2.264667e+01
      vertex   8.675143e+01  5.000000e+01 -1.142104e+01
    endloop
  endfacet
  facet normal  9.978589e-01  0.000000e+00 -6.540302e-02
    outer loop
      vertex   8.675143e+01  0.000000e+00 -1.142104e+01
      vertex   8.675143e+01  5.000000e+01 -1.142104e+01
      vertex   8.750000e+01  0.000000e+00  4.957311e-14
    endloop
  endfacet
  facet normal  9.978589e-01  0.000000e+00 -6.540302e-02
    outer loop
      vertex   8.750000e+01  0.000000e+00  4.957311e-14
      vertex   8.675143e+01  5.000000e+01 -1.142104e+01
      vertex   8.750000e+01  5.000000e+01  4.957311e-14
    endloop
  endfacet
  facet normal  9.978589e-01 -0.000000e+00  6.540302e-02
    outer loop
      vertex   8.750000e+01  0.000000e+00  4.957311e-14
      vertex   8.750000e+01  5.000000e+01  4.957311e-14
      vertex   8.675143e+01  0.000000e+00  1.142104e+01
    endloop
  endfacet
  facet normal  9.978589e-01 -0.000000e+00  6.540302e-02
    outer loop
      vertex   8.675143e+01  0.000000e+00  1.142104e+01
      vertex   8.750000e+01  5.000000e+01  4.957311e-14
      vertex   8.675143e+01  5.000000e+01  1.142104e+01
    endloop
  endfacet
  facet normal  9.807853e-01 -0.000000e+00  1.950904e-01
    outer loop
      vertex   8.675143e+01  0.000000e+00  1.142104e+01
      vertex   8.675143e+01  5.000000e+01  1.142104e+01
      vertex   8.451851e+01  0.000000e+00  2.264667e+01
    endloop
  endfacet
  facet normal  9.807853e-01 -0.000000e+00  1.950904e-01
    outer loop
      vertex   8.451851e+01  0.000000e+00  2.264667e+01
      vertex   8.675143e+01  5.000000e+01  1.142104e+01
      vertex   8.451851e+01  5.000000e+01  2.264667e+01
    endloop
  endfacet
  facet normal  9.469301e-01 -0.000000e+00  3.214393e-01
    outer loop
      vertex   8.451851e+01  0.000000e+00  2.264667e+01
      vertex   8.451851e+01  5.000000e+01  2.264667e+01
      vertex   8.083946e+01  0.000000e+00  3.348480e+01
    endloop
  endfacet
  facet normal  9.469301e-01 -0.000000e+00  3.214393e-01
    outer loop
      vertex   8.083946e+01  0.000000e+00  3.348480e+01
      vertex   8.451851e+01  5.000000e+01  2.264667e+01
      vertex   8.083946e+01  5.000000e+01  3.348480e+01
    endloop
  endfacet
  facet normal  8.968726e-01 -0.000000e+00  4.422890e-01
    outer loop
      vertex   8.083946e+01  0.000000e+00  3.348480e+01
      vertex   8.083946e+01  5.000000e+01  3.348480e+01
      vertex   7.577722e+01  0.000000e+00  4.375000e+01
    endloop
  endfacet
  facet normal  8.968726e-01 -0.000000e+00  4.422890e-01
    outer loop
      vertex   7.577722e+01  0.000000e+00  4.375000e+01
      vertex   8.083946e+01  5.000000e+01  3.348480e+01
      vertex   7.577722e+01  5.000000e+01  4.375000e+01
    endloop
  endfacet
  facet normal  8.314696e-01 -0.000000e+00  5.555702e-01
    outer loop
      vertex   7.577722e+01  0.000000e+00  4.375000e+01
      vertex   7.577722e+01  5.000000e+01  4.375000e+01
      vertex   6.941842e+01  0.000000e+00  5.326662e+01
    endloop
  endfacet
  facet normal  8.314696e-01 -0.000000e+00  5.555702e-01
    outer loop
      vertex   6.941842e+01  0.000000e+00  5.326662e+01
      vertex   7.577722e+01  5.000000e+01  4.375000e+01
      vertex   6.941842e+01  5.000000e+01  5.326662e+01
    endloop
  endfacet
  facet normal  7.518404e-01 -0.000000e+00  6.593451e-01
    outer loop
      vertex   6.941842e+01  0.000000e+00  5.326662e+01
      vertex   6.941842e+01  5.000000e+01  5.326662e+01
      vertex   6.187185e+01  0.000000e+00  6.187185e+01
    endloop
  endfacet
  facet normal  7.518404e-01 -0.000000e+00  6.593451e-01
    outer loop
      vertex   6.187185e+01  0.000000e+00  6.187185e+01
      vertex   6.941842e+01  5.000000e+01  5.326662e+01
      vertex   6.187185e+01  5.000000e+01  6.187185e+01
    endloop
  endfacet
  facet normal  6.593451e-01 -0.000000e+00  7.518404e-01
    outer loop
      vertex   6.187185e+01  0.000000e+00  6.187185e+01
      vertex   6.187185e+01  5.000000e+01  6.187185e+01
      vertex   5.326662e+01  0.000000e+00  6.941842e+01
    endloop
  endfacet
  facet normal  6.593451e-01 -0.000000e+00  7.518404e-01
    outer loop
      vertex   5.326662e+01  0.000000e+00  6.941842e+01
      vertex   6.187185e+01  5.000000e+01  6.187185e+01
      vertex   5.326662e+01  5.000000e+01  6.941842e+01
    endloop
  endfacet
  facet normal  5.555702e-01 -0.000000e+00  8.314696e-01
    outer loop
      vertex   5.326662e+01  0.000000e+00  6.941842e+01
      vertex   5.326662e+01  5.000000e+01  6.941842e+01
      vertex   4.375000e+01  0.000000e+00  7.577722e+01
    endloop
  endfacet
  facet normal  5.555702e-01 -0.000000e+00  8.314696e-01
    outer loop
      vertex   4.375000e+01  0.000000e+00  7.577722e+01
      vertex   5.326662e+01  5.000000e+01  6.941842e+01
      vertex   4.375000e+01  5.000000e+01  7.577722e+01
    endloop
  endfacet
  facet normal  4.422890e-01 -0.000000e+00  8.968726e-01
    outer loop
      vertex   4.375000e+01  0.000000e+00  7.577722e+01
      vertex   4.375000e+01  5.000000e+01  7.577722e+01
      vertex   3.348480e+01  0.000000e+00  8.083946e+01
    endloop
  endfacet
  facet normal  4.422890e-01 -0.000000e+00  8.968726e-01
    outer loop
      vertex   3.348480e+01  0.000000e+00  8.083946e+01
      vertex   4.375000e+01  5.000000e+01  7.577722e+01
      vertex   3.348480e+01  5.000000e+01  8.083946e+01
    endloop
  endfacet
  facet normal  3.214393e-01 -0.000000e+00  9.469301e-01
    outer loop
      vertex   3.348480e+01  0.000000e+00  8.083946e+01
      vertex   3.348480e+01  5.000000e+01  8.083946e+01
      vertex   2.264667e+01  0.000000e+00  8.451851e+01
    endloop
  endfacet
  facet normal  3.214393e-01 -0.000000e+00  9.469301e-01
    outer loop
      vertex   2.264667e+01  0.000000e+00  8.451851e+01
      vertex   3.348480e+01  5.000000e+01  8.083946e+01
      vertex   2.264667e+01  5.000000e+01  8.451851e+01
    endloop
  endfacet
  facet normal  1.950904e-01 -0.000000e+00  9.807853e-01
    outer loop
      vertex   2.264667e+01  0.000000e+00  8.451851e+01
      vertex   2.264667e+01  5.000000e+01  8.451851e+01
      vertex   1.142104e+01  0.000000e+00  8.675143e+01
    endloop
  endfacet
  facet normal  1.950904e-01 -0.000000e+00  9.807853e-01
    outer loop
      vertex   1.142104e+01  0.000000e+00  8.675143e+01
      vertex   2.264667e+01  5.000000e+01  8.451851e+01
      vertex   1.142104e+01  5.000000e+01  8.675143e+01
    endloop
  endfacet
  facet normal  6.540302e-02 -0.000000e+00  9.978589e-01
    outer loop
      vertex   1.142104e+01  0.000000e+00  8.675143e+01
      vertex   1.142104e+01  5.000000e+01  8.675143e+01
      vertex  -2.478656e-14  0.000000e+00  8.750000e+01
    endloop
  endfacet
  facet normal  6.540302e-02 -0.000000e+00  9.978589e-01
    outer loop
      vertex  -2.478656e-14  0.000000e+00  8.750000e+01
      vertex   1.142104e+01  5.000000e+01  8.675143e+01
      vertex  -2.478656e-14  5.000000e+01  8.750000e+01
    endloop
  endfacet
  facet normal -6.540302e-02  0.000000e+00  9.978589e-01
    outer loop
      vertex  -2.478656e-14  0.000000e+00  8.750000e+01
      vertex  -2.478656e-14  5.000000e+01  8.750000e+01
      vertex  -1.142104e+01  0.000000e+00  8.675143e+01
    endloop
  endfacet
  facet normal -6.540302e-02  0.000000e+00  9.978589e-01
    outer loop
      vertex  -1.142104e+01  0.000000e+00  8.675143e+01
      vertex  -2.478656e-14  5.000000e+01  8.750000e+01
      vertex  -1.142104e+01  5.000000e+01  8.675143e+01
    endloop
  endfacet
  facet normal -1.950904e-01  0.000000e+00  9.807853e-01
    outer loop
      vertex  -1.142104e+01  0.000000e+00  8.675143e+01
      vertex  -1.142104e+01  5.000000e+01  8.675143e+01
      vertex  -2.264667e+01  0.000000e+00  8.451851e+01
    endloop
  endfacet
  facet normal -1.950904e-01  0.000000e+00  9.807853e-01
    outer loop
      vertex  -2.264667e+01  0.000000e+00  8.451851e+01
      vertex  -1.142104e+01  5.000000e+01  8.675143e+01
      vertex  -2.264667e+01  5.000000e+01  8.451851e+01
    endloop
  endfacet
  facet normal -3.214393e-01  0.000000e+00  9.469301e-01
    outer loop
      vertex  -2.264667e+01  0.000000e+00  8.451851e+01
      vertex  -2.264667e+01  5.000000e+01  8.451851e+01
      vertex  -3.348480e+01  0.000000e+00  8.083946e+01
    endloop
  endfacet
  facet normal -3.214393e-01  0.000000e+00  9.469301e-01
    outer loop
      vertex  -3.348480e+01  0.000000e+00  8.083946e+01
      vertex  -2.264667e+01  5.000000e+01  8.451851e+01
      vertex  -3.348480e+01  5.000000e+01  8.083946e+01
    endloop
  endfacet
  facet normal -4.422890e-01  0.000000e+00  8.968726e-01
    outer loop
      vertex  -3.348480e+01  0.000000e+00  8.083946e+01
      vertex  -3.348480e+01  5.000000e+01  8.083946e+01
      vertex  -4.375000e+01  0.000000e+00  7.577722e+01
    endloop
  endfacet
  facet normal -4.422890e-01  0.000000e+00  8.968726e-01
    outer loop
      vertex  -4.375000e+01  0.000000e+00  7.577722e+01
      vertex  -3.348480e+01  5.000000e+01  8.083946e+01
      vertex  -4.375000e+01  5.000000e+01  7.577722e+01
    endloop
  endfacet
  facet normal -5.555702e-01  0.000000e+00  8.314696e-01
    outer loop
      vertex  -4.375000e+01  0.000000e+00  7.577722e+01
      vertex  -4.375000e+01  5.000000e+01  7.577722e+01
      vertex  -5.326662e+01  0.000000e+00  6.941842e+01
    endloop
  endfacet
  facet normal -5.555702e-01  0.000000e+00  8.314696e-01
    outer loop
      vertex  -5.326662e+01  0.000000e+00  6.941842e+01
      vertex  -4.375000e+01  5.000000e+01  7.577722e+01
      vertex  -5.326662e+01  5.000000e+01  6.941842e+01
    endloop
  endfacet
  facet normal -6.593451e-01  0.000000e+00  7.518404e-01
    outer loop
      vertex  -5.326662e+01  0.000000e+00  6.941842e+01
      vertex  -5.326662e+01  5.000000e+01  6.941842e+01
      vertex  -6.187185e+01  0.000000e+00  6.187185e+01
    endloop
  endfacet
  facet normal -6.593451e-01  0.000000e+00  7.518404e-01
    outer loop
      vertex  -6.187185e+01  0.000000e+00  6.187185e+01
      vertex  -5.326662e+01  5.000000e+01  6.941842e+01
      vertex  -6.187185e+01  5.000000e+01  6.187185e+01
    endloop
  endfacet
  facet normal -7.518404e-01  0.000000e+00  6.593451e-01
    outer loop
      vertex  -6.187185e+01  0.000000e+00  6.187185e+01
      vertex  -6.187185e+01  5.000000e+01  6.187185e+01
      vertex  -6.941842e+01  0.000000e+00  5.326662e+01
    endloop
  endfacet
  facet normal -7.518404e-01  0.000000e+00  6.593451e-01
    outer loop
      vertex  -6.941842e+01  0.000000e+00  5.326662e+01
      vertex  -6.187185e+01  5.000000e+01  6.187185e+01
      vertex  -6.941842e+01  5.000000e+01  5.326662e+01
    endloop
  endfacet
  facet normal -8.314696e-01  0.000000e+00  5.555702e-01
    outer loop
      vertex  -6.941842e+01  0.000000e+00  5.326662e+01
      vertex  -6.941842e+01  5.000000e+01  5.326662e+01
      vertex  -7.577722e+01  0.000000e+00  4.375000e+01
    endloop
  endfacet
  facet normal -8.314696e-01  0.000000e+00  5.555702e-01
    outer loop
      vertex  -7.577722e+01  0.000000e+00  4.375000e+01
      vertex  -6.941842e+01  5.000000e+01  5.326662e+01
      vertex  -7.577722e+01  5.000000e+01  4.375000e+01
    endloop
  endfacet
  facet normal -8.968726e-01  0.000000e+00  4.422890e-01
    outer loop
      vertex  -7.577722e+01  0.000000e+00  4.375000e+01
      vertex  -7.577722e+01  5.000000e+01  4.375000e+01
      vertex  -8.083946e+01  0.000000e+00  3.348480e+01
    endloop
  endfacet
  facet normal -8.968726e-01  0.000000e+00  4.422890e-01
    outer loop
      vertex  -8.083946e+01  0.000000e+00  3.348480e+01
      vertex  -7.577722e+01  5.000000e+01  4.375000e+01
      vertex  -8.083946e+01  5.000000e+01  3.348480e+01
    endloop
  endfacet
  facet normal -9.469301e-01  0.000000e+00  3.214393e-01
    outer loop
      vertex  -8.083946e+01  0.000000e+00  3.348480e+01
      vertex  -8.083946e+01  5.000000e+01  3.348480e+01
      vertex  -8.451851e+01  0.000000e+00  2.264667e+01
    endloop
  endfacet
  facet normal -9.469301e-01  0.000000e+00  3.214393e-01
    outer loop
      vertex  -8.451851e+01  0.000000e+00  2.264667e+01
      vertex  -8.083946e+01  5.000000e+01  3.348480e+01
      vertex  -8.451851e+01  5.000000e+01  2.264667e+01
    endloop
  endfacet
  facet normal -9.807853e-01  0.000000e+00  1.950904e-01
    outer loop
      vertex  -8.451851e+01  0.000000e+00  2.264667e+01
      vertex  -8.451851e+01  5.000000e+01  2.264667e+01
      vertex  -8.675143e+01  0.000000e+00  1.142104e+01
    endloop
  endfacet
  facet normal -9.807853e-01  0.000000e+00  1.950904e-01
    outer loop
      vertex  -8.675143e+01  0.000000e+00  1.142104e+01
      vertex  -8.451851e+01  5.000000e+01  2.264667e+01
      vertex  -8.675143e+01  5.000000e+01  1.142104e+01
    endloop
  endfacet
  facet normal -9.978589e-01  0.000000e+00  6.540302e-02
    outer loop
      vertex  -8.675143e+01  0.000000e+00  1.142104e+01
      vertex  -8.675143e+01  5.000000e+01  1.142104e+01
      vertex  -8.750000e+01  0.000000e+00  0.000000e+00
    endloop
  endfacet
  facet normal -9.978589e-01  0.000000e+00  6.540302e-02
    outer loop
      vertex  -8.750000e+01  0.000000e+00  0.000000e+00
      vertex  -8.675143e+01  5.000000e+01  1.142104e+01
      vertex  -8.750000e+01  5.000000e+01  0.000000e+00
    endloop
  endfacet
endsolid vcg
